<svg width="1440" height="1021" viewBox="0 0 1440 1021" fill="none" xmlns="http://www.w3.org/2000/svg">
<mask id="mask0" mask-type="alpha" maskUnits="userSpaceOnUse" x="0" y="0" width="1440" height="1021">
<rect width="1440" height="1021" fill="#C4C4C4"/>
</mask>
<g mask="url(#mask0)">
<path d="M-455.14 474.532C-454.733 475.563 -454.062 476.85 -453.601 477.296C-452.347 478.508 -451.875 487.128 -452.959 488.249C-453.469 488.776 -455.401 489.587 -457.404 490.074C-461.407 491.178 -464.605 493.826 -464.756 496.359C-464.862 497.788 -463.868 499.004 -460.449 501.671C-455.908 505.423 -447.796 516.965 -447.413 520.397C-447.398 521.305 -448.206 523.329 -449.345 525.035C-452.703 529.696 -453.561 540.22 -451.245 546.668C-449.881 550.538 -449.645 552.934 -450.379 555.541C-451.058 557.563 -451.165 562.69 -450.702 566.964C-449.72 575.056 -450.531 576.951 -454.187 575.584C-457.061 574.465 -459.817 576.392 -460.538 579.777C-460.949 582.314 -460.614 582.892 -456.793 586.331C-448.095 594.231 -445.481 602.88 -449.571 610.278C-452.154 614.797 -454.609 615.357 -457.973 612.105C-459.424 610.702 -461.524 609.309 -462.568 608.937C-465.893 608.02 -471.751 610.647 -475.958 614.998C-480.866 620.075 -481.237 621.119 -479.733 625.635C-478.235 629.762 -479.494 631.988 -483.44 632.638C-484.669 632.853 -486.405 633.725 -487.298 634.648C-488.256 635.507 -490.118 636.641 -491.538 637.054C-492.958 637.467 -495.394 639.194 -497.053 640.778C-500.432 644.272 -500.813 648.495 -497.977 651.238C-495.668 653.47 -486.01 656.812 -481.27 657.058C-473.543 657.513 -467.417 662.925 -470.795 666.42C-474.301 670.046 -472.365 677.02 -466.919 680.627C-465.345 681.638 -462.021 682.556 -459.425 682.643C-456.828 682.729 -454.025 683.526 -453.234 684.291C-451.387 686.077 -451.322 689.838 -453.043 691.619C-454.637 693.267 -460.715 694.406 -466.495 694.048C-470.456 693.789 -471.23 694.062 -474.549 697.23C-479.528 701.984 -482.698 702.491 -488.326 699.6C-495.265 695.953 -506.855 697.248 -509.562 702.029C-510.193 703.077 -511.274 704.328 -512.048 704.6C-513.27 705.204 -513.534 704.949 -514.357 702.368C-516.064 697.402 -518.887 695.437 -522.498 696.665C-525.53 697.689 -525.594 697.755 -525.224 700.408C-524.057 707.914 -525.185 710.268 -529.61 709.433C-533.06 708.777 -535.616 711.025 -532.868 712.406C-526.848 715.42 -521.328 715.782 -517.085 713.506C-515.542 712.702 -515.019 712.953 -513.031 715.385C-510.047 719.163 -507.624 720.485 -503.342 720.543C-499.319 720.606 -497.665 722.46 -495.213 729.296C-493.306 734.583 -491.668 735.529 -486.827 734.086C-481.923 732.578 -479.832 733.451 -475.713 739.091C-468.411 748.83 -470.817 756.071 -480.708 754.289C-485.784 753.335 -491.93 754.281 -493.843 756.259C-495.946 758.435 -499.893 766.609 -499.923 768.62C-499.868 771.863 -495.594 775.23 -491.507 775.227C-488.328 775.239 -488.066 775.364 -488.754 776.868C-489.253 778.044 -490.22 778.384 -492.366 778.096C-494.056 777.864 -495.868 778.154 -496.505 778.813C-497.079 779.406 -498.18 783.317 -498.953 787.417C-500.141 793.794 -500.637 795.099 -502.882 796.629C-506.535 799.219 -506.436 801.229 -502.478 805.055C-499.905 807.542 -499.235 808.829 -499.256 811.359C-499.161 813.109 -499.838 815.261 -500.73 816.184C-503.408 818.953 -502.712 821.666 -498.704 824.648C-495.485 826.995 -495.349 827.382 -496.089 829.6C-497.392 833.059 -495.688 834.069 -490.32 833.137C-486.634 832.491 -485.09 831.687 -482.413 828.918C-478.907 825.292 -476.065 824.596 -474.919 827.107C-474.515 828.009 -475.141 829.316 -477.053 831.294C-480.368 834.723 -480.539 836.088 -478.656 843.776C-477.886 847.072 -477.621 851.154 -478.047 852.783C-478.603 854.414 -478.502 856.553 -477.835 857.58C-476.701 859.442 -465.38 865.157 -461.28 865.932C-457.96 866.591 -451.008 871.016 -449.541 873.327C-448.809 874.418 -448.84 876.429 -449.462 877.996C-450.703 881.261 -450.235 882.096 -447.328 881.334C-444.873 880.774 -441.32 883.699 -440.814 886.74C-440.525 888.422 -441.536 889.995 -446.756 895.791C-452.487 902.114 -453.511 902.909 -457.767 904.407C-460.411 905.294 -464.683 905.884 -467.217 905.602C-471.7 905.222 -481.59 907.268 -483.247 908.982C-484.267 910.037 -480.512 913.413 -478.505 913.185C-477.599 913.04 -474.796 913.837 -472.184 914.831C-468.332 916.259 -467.215 917.084 -465.746 919.525C-464.009 922.48 -463.747 922.605 -458.885 922.459C-453.05 922.233 -451.54 923.31 -451.005 928.037C-450.78 929.785 -450.349 932.243 -449.94 933.404C-449.39 935.211 -450.018 936.389 -454.913 942.244C-459.933 948.36 -460.894 949.09 -463.993 949.92C-468.708 951.101 -471.957 954.593 -473.036 959.801C-474.116 964.878 -472.592 966.734 -467 967.55C-455.684 969.178 -454.576 969.484 -452.265 971.846C-450.946 973.121 -449.288 975.234 -448.553 976.455C-447.485 978.253 -446.436 978.884 -443.965 979.233C-442.274 979.464 -439.535 980.327 -438.093 981.211C-435.865 982.471 -434.828 982.454 -432.777 980.993C-428.737 978.266 -426.848 978.689 -420.729 983.712C-415.861 987.653 -414.881 988.09 -411.772 987.779C-408.987 987.538 -407.894 986.936 -406.439 984.772C-405.363 983.262 -403.958 981.941 -403.248 981.734C-400.988 981.113 -393.537 984.362 -390.635 987.168C-386.743 990.931 -382.322 991.506 -377.954 988.969C-373.652 986.367 -368.205 986.277 -364.399 988.808C-361.578 990.643 -361.442 991.03 -361.823 995.253C-362.883 1005.33 -362.817 1005.39 -359.772 1008.97C-358.053 1010.89 -355.981 1014.42 -354.967 1016.81L-353.271 1021.12L-348.839 1022.35C-345.451 1023.2 -344.091 1023.11 -342.879 1021.86C-341.35 1020.28 -341.484 1020.02 -344.907 1017.09C-349.254 1013.27 -350.879 1009.28 -349.653 1005.11C-348.856 1002.43 -348.471 1002.17 -345.308 1001.27C-341.111 1000.1 -339.977 998.133 -341.908 995.246C-342.64 994.155 -343.837 992.488 -344.503 991.462C-346.497 988.64 -343.736 986.973 -339.236 988.39C-337.15 989.004 -334.485 989.284 -333.518 988.944C-332.485 988.667 -330.018 988.756 -327.934 989.24C-325.067 989.971 -323.904 989.692 -322.374 988.11C-319.761 985.407 -317.732 986.476 -317.01 990.745C-316.436 993.979 -316.104 994.428 -312.632 996.381C-310.6 997.58 -307.401 998.759 -305.711 998.991C-303.11 999.337 -302.059 1000.1 -299.739 1002.98C-297.351 1006.05 -296.696 1006.43 -294.168 1006.32C-292.614 1006.17 -291.125 1005.95 -290.871 1005.68C-290.042 1004.83 -275.655 1007.77 -274.402 1008.98C-272.951 1010.38 -269.886 1011.3 -265.599 1011.62C-261.963 1011.82 -258.48 1014.42 -259.755 1015.74C-260.201 1016.2 -262.92 1016.51 -265.712 1016.36C-270.063 1016.11 -270.967 1016.38 -271.329 1017.95C-272.603 1023.09 -267.561 1029.62 -261.042 1031.46C-259.673 1031.89 -255.812 1033.84 -252.534 1035.86C-245.586 1040.03 -245.448 1040.54 -250.164 1045.42C-252.842 1048.19 -253.809 1048.53 -258.349 1048.61C-266.975 1048.69 -267.634 1051.88 -259.963 1056.61C-257.536 1058.19 -254.785 1059.71 -253.871 1060.08C-252.171 1060.83 -248.564 1059.34 -245.495 1056.7C-243.449 1054.98 -243.319 1054.97 -240.212 1058.36C-237.963 1060.92 -235.733 1062.31 -231.686 1063.8C-224.701 1066.34 -224.107 1066.92 -223.168 1072.54C-222.8 1075.07 -221.568 1078.81 -220.495 1080.87C-219.486 1082.99 -218.524 1086.09 -218.43 1087.84C-218.032 1095.88 -212.443 1104.09 -205.986 1106.12C-203.899 1106.73 -199.843 1108.74 -197.022 1110.58C-190.659 1114.69 -184.98 1116.73 -181.944 1115.97C-180.588 1115.62 -177.636 1113.76 -175.335 1111.77L-171.114 1108.2L-169.195 1110.44C-166.943 1113.13 -166.556 1112.99 -158.854 1108.19C-155.387 1106.06 -152.048 1104.06 -151.343 1103.59C-150.507 1103.12 -149.769 1100.77 -149.561 1097.79C-148.986 1089.67 -143.724 1086.34 -137.88 1090.46C-134.006 1093.18 -132.461 1092.51 -131.184 1087.49C-130.571 1085.41 -130.02 1083.52 -129.765 1083.25C-129.574 1083.05 -127.503 1082.76 -125.236 1082.53C-120.378 1082.12 -111.098 1086.12 -107.854 1089.89C-106.201 1091.75 -106.122 1092.59 -107.392 1094.17C-109.232 1096.6 -117.262 1097.38 -122.805 1095.72C-124.827 1095.04 -126.975 1094.62 -127.555 1094.83C-128.202 1094.97 -128.852 1098.68 -128.972 1103.02C-129.557 1114.32 -127.849 1115.59 -113.33 1114.83C-105.293 1114.44 -104.906 1114.3 -101.592 1110.87C-98.6597 1107.84 -98.2861 1106.93 -98.5899 1104.34C-98.9664 1101.29 -98.9027 1101.23 -95.8075 1100.14C-94.0005 1099.59 -91.6925 1097.99 -90.6111 1096.74C-88.6418 1094.31 -85.5444 1093.35 -84.0273 1094.82C-83.5655 1095.26 -81.7475 1095.36 -79.8723 1095.01C-77.9971 1094.65 -75.3304 1095.06 -73.4967 1096.07C-69.1083 1098.53 -69.0423 1098.59 -72.7882 1099.56C-74.6612 1100.05 -76.8484 1101.12 -77.6133 1101.91C-79.1431 1103.49 -82.4606 1102.96 -84.1163 1100.98C-86.1019 1098.68 -86.8186 1098.5 -89.4586 1099.64C-96.8622 1102.94 -93.4952 1110.15 -84.5389 1110.39C-82.7868 1110.43 -79.9903 1110.84 -78.1656 1111.33C-75.3647 1111.99 -74.8392 1112.37 -74.6806 1114.06C-74.2997 1117.36 -79.9379 1121.48 -86.1459 1122.62C-93.13 1123.9 -95.4247 1126.27 -95.0631 1132.24C-94.8912 1134.7 -94.4621 1137.03 -94.1322 1137.35C-92.813 1138.62 -87.4973 1138.4 -85.3168 1136.94C-83.7781 1135.88 -81.4456 1135.71 -78.4535 1136.18L-73.8983 1137.01L-69.6276 1132.59C-64.6558 1127.45 -63.1037 1127.16 -59.667 1130.87C-56.9558 1133.87 -54.9465 1133.77 -54.0281 1130.58C-53.6657 1129.02 -54.4639 1127.86 -59.4112 1123.08C-62.5774 1120.02 -65.6251 1116.31 -66.2321 1114.96L-67.1822 1112.51L-62.555 1109.96C-59.9854 1108.49 -56.4374 1107.33 -54.6875 1107.24L-51.3811 1107.12L-51.7509 1104.47C-52.2593 1101.29 -51.0942 1101.15 -48.1258 1104.02C-46.2129 1105.87 -46.1403 1106.32 -47.5426 1107.77C-48.8812 1109.15 -48.7974 1110.25 -47.4426 1113.61C-45.549 1118.11 -46.0478 1119.29 -50.563 1120.79C-52.1106 1121.34 -53.6493 1122.4 -53.9613 1123.12C-54.7085 1124.95 -52.7933 1126.93 -50.5928 1126.63C-49.7508 1126.55 -47.7259 1127.36 -46.0857 1128.44C-44.3114 1129.77 -41.1192 1130.56 -36.8345 1130.75C-30.9911 1131.04 -30.1513 1130.83 -28.3095 1128.53C-26.7204 1126.62 -26.4195 1125.26 -26.9716 1123.32C-27.7261 1120.93 -28.0537 1120.74 -32.0197 1120.23C-35.9197 1119.77 -36.3133 1119.52 -38.2507 1116.24C-40.9247 1111.62 -41.2968 1108.83 -39.369 1107.76C-37.2477 1106.62 -27.2909 1108.47 -26.0924 1110.27C-25.5603 1111.04 -25.5862 1113.31 -26.1992 1115.39C-26.7484 1117.41 -26.9086 1119.43 -26.4468 1119.87C-26.051 1120.26 -22.0346 1119.93 -17.638 1119.08C-9.10191 1117.51 -9.68003 1117.84 -3.98327 1109.57C-1.32612 1105.64 0.949266 1105.92 4.08065 1110.74C6.01358 1113.75 7.06677 1114.65 9.54672 1115.51C13.9174 1116.93 14.5333 1118.8 11.6012 1121.84C5.67319 1127.97 4.67845 1134.28 8.42572 1140.96C10.6996 1144.94 19.303 1151.09 24.2518 1152.18C27.5077 1152.9 33.8959 1150.92 38.1888 1147.8C40.4309 1146.14 40.9341 1145.22 41.138 1141.97C41.6206 1136.06 38.779 1129.23 33.4886 1123.35C31.0413 1120.6 29.0491 1117.91 29.1721 1117.52C29.4731 1116.15 42.0715 1113.16 44.8724 1113.82C49.9509 1114.91 53.0594 1114.59 54.6529 1112.95C55.5453 1112.02 58.6953 1110.35 61.531 1109.26C65.1406 1107.91 68.4136 1105.84 71.9898 1102.54C77.0387 1098.11 77.5531 1097.84 81.1277 1098.23C83.7922 1098.51 86.118 1097.96 89.3296 1096.09C91.8355 1094.68 95.3813 1093.39 97.2586 1093.17C102.957 1092.55 108.626 1090.25 113.299 1086.61C117.909 1083.03 121.905 1081.53 125.548 1082.12C129.125 1082.65 131.193 1078.4 128.62 1075.91C127.037 1074.38 128.043 1072.54 131.64 1070.41C137.357 1067.14 140.732 1059.68 138.707 1055.05C137.22 1051.57 137.595 1046.96 139.571 1044.91C141.611 1042.8 157.199 1040.14 173.206 1039.16C184.351 1038.46 187.262 1037.96 190.535 1035.89C196.503 1032.1 197.435 1029.68 197.505 1018.65C197.551 1006.19 199.699 1002.79 201.606 1011.9C202.592 1016.43 205.371 1019.62 210.074 1021.49C213.992 1022.98 215.207 1021.99 216.088 1016.59C216.916 1011.91 219.841 1008.48 222.827 1008.56C224.06 1008.61 226.993 1009.4 229.409 1010.34C234.633 1012.32 236.699 1011.77 241.034 1007.29C242.818 1005.44 245.122 1003.59 246.155 1003.31C248.866 1002.49 255.811 991.344 256.698 986.334C257.35 982.756 257.981 981.707 260.99 979.387C263.166 977.664 264.375 976.281 264.232 975.505C263.748 973.762 265.669 972.303 269.422 971.722C271.363 971.43 273.623 970.808 274.46 970.47C277.098 969.194 280.728 961.479 280.719 957.133C280.7 952.268 281.845 950.951 286.625 949.704C289.144 949.078 290.685 948.145 291.693 946.441C292.707 944.997 294.371 943.672 296.048 943.125C301.014 941.421 301.702 939.918 299.298 935.935C295.296 929.515 297.284 924.422 301.599 930.124C303.525 932.751 303.982 932.938 306.497 932.053C308.045 931.509 310.935 929.839 312.856 928.38C317.274 924.998 321.935 924.402 328.326 926.371C333.675 928.099 336.262 927.666 341.4 924.597C344.802 922.529 352.353 920.263 354.888 920.545C355.473 920.601 357.043 921.353 358.287 922.046C360.844 923.625 363.236 923.131 365.849 920.428C368.527 917.659 370.349 918.018 374.637 922.163C379.32 926.691 384.221 928.751 387.052 927.406C388.147 926.934 390.318 924.952 391.778 923.046C394.824 919.103 396.761 918.552 400.105 920.637C403.645 922.784 405.711 922.231 406.302 918.848C406.842 916.309 406.574 915.794 403.621 913.832C398.566 910.348 397.04 908.363 395.659 903.456C394.489 899.518 393.956 898.748 391.602 897.62C388.266 896.053 388.128 895.537 389.143 890.395C389.685 887.986 389.436 884.811 388.484 882.232C387.602 879.977 386.907 877.264 387.019 876.224C387.231 873.496 384.138 870.888 380.304 870.497C376.729 870.102 373.372 867.239 372.208 863.691C371.251 860.852 374.326 858.596 380.73 857.516C383.511 857.016 386.087 855.935 387.235 854.748C389.848 852.045 390.986 846.512 389.818 842.704C387.552 835.412 386.68 829.977 386.741 822.127C386.669 814.149 386.53 813.632 383.839 811.796C381.607 810.276 380.807 808.992 379.971 805.632L378.924 801.303L383.445 796.363C385.865 793.728 389.692 789.902 391.797 787.856C397.161 782.837 398.211 779.77 396.056 775.135C394.507 771.853 393.848 771.215 388.932 768.248C385.981 766.416 382.366 763.686 380.783 762.156C379.264 760.559 377.03 758.91 375.726 758.542C374.488 758.238 373.44 757.607 373.433 757.218C373.413 756.051 378.784 755.248 380.874 756.121C383.161 757.056 390.229 756.874 393.454 755.782C394.614 755.374 396.346 754.242 397.366 753.187C399.151 751.341 407.546 745.299 416.527 739.441C420.119 737.046 424.333 733.084 430.957 725.967C439.237 717.007 440.644 715.816 443.101 715.386C446.529 714.746 453.828 709.175 452.641 708.027C452.179 707.581 449.77 707.037 447.301 706.818C441.26 706.335 439.857 703.958 443.363 700.332C444.765 698.882 447.719 697.146 449.911 696.331C452.492 695.51 456.086 693.244 459.857 690.003C464.715 685.771 467.157 684.433 474.636 681.713C480.05 679.677 484.768 678.626 486.394 678.923C490.365 679.7 491.943 677.144 490.243 672.567C489.427 670.375 489.257 668.042 489.945 666.539C490.571 665.231 491.503 662.815 491.995 661.25C492.551 659.619 495.147 655.878 497.819 652.85C501.255 648.901 503.024 646.147 503.817 643.214C504.799 639.955 505.43 638.906 507.426 638.03C508.712 637.36 511.782 634.843 514.141 632.404C518.22 628.185 518.671 627.982 522.887 627.977L527.363 627.968L535.265 619.663C539.661 614.984 543.925 610.177 544.681 608.867C545.567 607.555 547.991 605.18 550.233 603.521C554.014 600.798 554.267 600.405 553.965 597.945C553.741 596.197 552.538 594.141 550.559 592.228C548.973 590.568 546.513 587.041 545.235 584.402C543.957 581.764 542.348 578.677 541.615 577.586C539.555 574.701 535.154 575.293 529.707 579.211C527.271 580.938 523.541 582.817 521.472 583.24C519.338 583.6 516.372 584.687 514.763 585.428C512.833 586.368 510.694 586.468 508.021 585.669C503.325 584.191 501.779 584.865 501.063 588.51C500.407 591.829 497.147 594.672 495.375 593.469C494.326 592.838 494.627 591.471 496.513 587.936C498.398 584.402 498.879 582.189 498.375 579.278C498.078 577.077 498.364 574.802 499.065 574.077C500.212 572.89 506.273 570.713 513.12 569.043L516.543 568.142L518.666 563.307C520.848 558.146 522.446 556.757 527.739 555.242C530.709 554.414 531.094 554.148 531.828 551.541C532.256 550.042 532.396 546.861 532.099 544.66C531.43 539.676 532.28 536.289 535.638 531.627C537.665 528.739 538.155 527.045 537.892 523.092C537.483 518.104 535.888 515.925 531.122 514.123C529.816 513.625 529.873 513.17 531.594 511.39C533.188 509.742 533.678 508.047 533.486 504.418C533.236 497.416 534.578 492.463 537.574 489.365C540.315 486.53 541.275 481.973 541.721 470.159C542.099 458.152 539.683 457.219 528.075 465.002C523.841 467.796 519.678 470.915 518.722 471.903C517.766 472.892 514.807 474.369 512.099 475.322C508.036 476.752 506.689 477.617 504.278 480.771C502.691 482.809 500.264 485.055 499.042 485.659C497.433 486.399 496.095 487.784 494.899 489.944C493.011 493.349 484.869 498.998 480.732 499.845C478.081 500.343 476.294 502.06 473.652 506.904C471.954 509.981 470.995 510.841 468.032 512.057C466.1 512.868 463.082 514.67 461.224 516.063C457.191 519.179 449.879 520.273 443.365 518.695C439.001 517.665 435.319 518.569 434.776 520.978C434.24 523.777 430.705 521.889 421.552 513.933C413.847 507.249 411.93 505.141 410.716 502.436C409.904 500.504 408.042 497.81 406.459 496.279C404.942 494.813 403.083 492.378 402.345 490.899C401.471 489.162 399.754 487.374 397.591 486.048C392.934 483.076 391.535 480.959 392.197 477.899C392.55 475.817 392.994 475.226 394.419 475.072C397.008 474.77 398.93 477.138 400.51 482.237C401.744 486.108 402.144 486.75 403.568 486.597C404.863 486.446 405.428 485.333 406.267 481.298C406.869 478.563 407.666 475.89 408.113 475.429C408.559 474.967 408.719 472.953 408.424 470.882C407.843 467.259 407.97 467.128 411.059 465.649C415.24 463.569 415.96 460.183 413.222 455.623C412.154 453.824 411.124 450.533 410.891 448.267C410.723 446.064 409.758 442.707 408.819 440.906C405.735 435.119 410.101 432.451 414.916 437.107C415.972 438.127 417.673 439.007 418.775 438.924C420.461 438.896 420.78 438.566 421.577 435.893C422.067 434.199 421.831 431.802 421.093 430.323C420.42 428.907 420.07 427.42 420.325 427.157C420.643 426.827 422.796 427.505 425.214 428.567C431.948 431.634 440.546 429.869 438.725 425.813C438.32 424.911 436.887 424.546 434.686 424.842C430.802 425.296 430.002 424.012 430.686 418.551C431.093 415.755 431.22 415.623 433.869 414.995C435.678 414.576 437.153 413.579 437.911 412.398C438.982 410.499 438.782 410.178 433.9 405.459C430.47 402.143 428.014 398.875 426.27 395.531C424.926 392.829 423.191 390.003 422.466 389.302C420.091 387.006 415.863 386.362 411.797 387.533C405.729 389.32 403.192 388.908 401.132 386.024C400.136 384.678 397.15 380.77 394.432 377.377C391.714 373.984 389.451 370.649 389.374 369.936C389.297 369.224 386.52 366.157 383.224 363.098C378.807 358.954 376.421 356.01 373.945 351.575C369.727 343.926 367.748 342.012 360.957 339.401C356.516 337.658 354.35 336.202 349.535 331.547C342.542 324.787 341.234 324.16 330.172 322.138C322.297 320.647 321.325 320.728 317.535 322.932C315.287 324.202 311.825 326.595 309.84 328.12C306.512 330.77 293.879 335.521 289.216 335.987C288.051 336.136 285.832 335.395 284.322 334.317C280.91 332.039 279.215 331.548 272.714 330.748C269.854 330.406 267.248 329.801 266.721 329.29C266.259 328.844 263.319 327.66 260.191 326.804C257.126 325.882 254.123 324.764 253.661 324.318C252.144 322.851 252.055 317.663 253.506 315.239C255.589 311.896 255.771 307.352 254.016 303.359C252.397 299.753 252.584 299.296 256.734 295.399C258.778 293.549 261.302 293.183 275.76 292.748C287.627 292.486 293.13 291.81 294.862 290.679C296.337 289.681 298.729 289.187 301.263 289.47C303.539 289.756 305.678 289.656 306.06 289.26C307.59 287.678 318.591 286.068 322.431 286.847C326.338 287.691 330.532 286.388 333.337 283.487C334.102 282.696 336.606 281.163 338.857 280.022L343.037 277.942L342.658 270.942C342.371 265.563 342.72 263.222 344.301 260.795C346.2 258.039 346.65 257.837 349.576 258.242C359.071 259.642 361.967 258.231 365.272 250.457C368.579 242.812 369.977 241.102 374.096 239.217C379.246 236.926 379.752 236.139 379.656 230.562C379.676 227.902 379.939 224.33 380.106 222.705C380.402 221.078 379.896 218.038 379.016 215.912C378.139 213.915 377.219 209.455 376.968 206.15C376.556 201.033 376.078 199.678 373.704 197.382C370.076 193.875 367.156 193.858 354.692 197.114C348.233 198.779 344.349 199.232 342.845 198.544C336.373 195.603 331.725 193.15 330.801 192.257C330.273 191.747 327.084 191.086 323.705 190.753C320.328 190.55 316.102 190.036 314.214 189.614C308.94 188.469 305.713 189.431 299.435 194.076C292.067 199.453 290.051 202.989 292.437 205.934C293.631 207.471 293.713 208.442 292.768 210.08C290.181 214.339 290.058 214.731 290.887 217.701C292.124 221.702 291.219 225.674 288.236 229.551C285.253 233.428 283.433 233.199 281.863 228.619C280.29 223.91 277.594 221.814 273.321 222.274C268.852 222.673 265.851 225.512 265.021 230.067C264.727 231.823 263.536 234.243 262.516 235.298C261.432 236.419 259.911 238.52 259.096 240.156C257.839 242.512 256.942 243.175 254.036 243.937C251.194 244.633 249.976 245.497 248.138 248.057C246.303 250.747 243.866 252.345 235.701 256.697C230.043 259.645 224.005 263.119 222.148 264.512C217.984 267.63 216.501 268.109 207.958 269.289C204.205 269.87 200.259 270.52 199.226 270.796C198.259 271.137 195.66 270.921 193.51 270.372C187.71 268.847 186.101 269.587 185.524 273.749C184.839 279.209 183.599 278.776 176.259 270.659C171.303 265.357 169.441 262.664 168.748 260.08C167.575 256.013 165.856 254.096 162.272 253.182C160.839 252.817 158.873 251.682 157.754 250.727C155.709 248.75 151.714 246.546 146.62 244.555C142.311 242.94 139.006 239.362 138.296 235.741C138.007 234.059 137.253 231.672 136.646 230.32C135.434 227.745 133.418 227.454 126.696 228.863C125.08 229.214 123.257 228.855 122.334 227.963C119.431 225.157 112.374 222.16 107.307 221.725C104.512 221.447 101.514 220.589 100.722 219.824C99.9306 219.058 96.459 217.105 92.994 215.541C88.4166 213.412 85.3319 211.322 81.7039 207.815C77.2843 203.542 76.3016 202.974 73.514 203.085C70.854 203.065 69.6977 203.733 66.8294 206.699C63.6423 209.996 63.4577 210.583 63.7882 214.729C63.9601 217.191 64.6664 220.553 65.4076 222.162C66.085 223.838 66.5689 225.581 66.4481 226.102C66.3933 226.687 66.9365 228.105 67.671 229.325C68.5352 230.543 69.6306 233.898 70.2005 236.873C70.7704 239.848 71.5316 242.624 71.9933 243.071C73.4445 244.474 72.5084 246.63 68.317 251.889L64.1894 257.083L57.3854 257.52C44.7492 258.314 38.8383 261.656 40.5496 266.882C41.645 270.237 41.2692 271.022 38.3497 271.005C36.9889 271.093 35.0871 269.892 32.7784 267.66C30.7995 265.747 28.7635 264.288 28.1832 264.493C26.1805 264.98 23.4203 270.475 23.2298 274.5L23.0393 278.525L19.6121 279.166C16.4421 279.673 15.9937 280.005 13.9146 283.607C12.7191 285.768 11.1589 289.361 10.4184 291.579C8.75295 296.602 7.33509 297.145 4.94041 293.681C2.61614 290.541 -2.21626 288.676 -7.20213 289.213C-11.2823 289.605 -12.4978 290.598 -12.3852 293.386C-12.4023 296.175 -9.43837 298.786 -5.92967 299.117C-1.51082 299.562 1.20257 302.696 1.21881 307.431C1.25658 309.636 0.968973 311.781 0.522782 312.243C-0.497083 313.298 -3.67819 313.156 -7.78722 311.862C-12.2216 310.509 -13.7448 312.48 -12.1039 317.383C-10.8061 321.189 -7.42867 325.219 -5.28299 325.508C-4.63224 325.627 -2.30422 325.199 -0.0443818 324.578C4.86219 323.199 5.77234 323.313 13.628 327.464C20.5667 331.111 20.7691 331.562 17.0283 336.619C13.0963 341.874 12.7776 342.204 8.44918 343.249C3.40846 344.371 1.42136 345.766 -6.30247 353.095C-11.9821 358.574 -12.7537 358.976 -20.3048 361.242C-26.8864 363.297 -28.6363 363.391 -30.4744 362.124L-32.772 360.541L-37.6712 366.136C-42.3177 371.338 -42.8958 371.672 -45.2372 371.322C-46.6684 371.086 -48.6317 370.081 -49.6871 369.061C-52.6555 366.191 -55.0583 366.036 -58.782 368.303C-64.5587 371.903 -65.9811 372.186 -68.736 370.415C-70.1783 369.531 -72.6582 368.664 -74.1532 368.494C-77.9213 368.168 -79.4429 366.441 -79.2457 362.805C-78.9936 358.585 -80.5723 357.313 -82.2755 360.131C-87.071 367.995 -87.2645 368.063 -100.09 369.185C-103.2 369.366 -105.262 370.179 -106.728 371.695C-109.661 374.728 -110.505 374.677 -117.562 371.681C-127.102 367.688 -126.453 367.677 -130.278 371.633C-132.763 374.204 -134.753 375.469 -137.595 376.165C-141.084 377.002 -141.864 376.885 -144.173 374.653C-146.482 372.421 -147.262 372.304 -152.567 373.171C-155.801 373.743 -160.584 374.731 -163.233 375.359C-169.239 376.951 -177.731 377.287 -183.069 376.208L-187.235 375.369L-187.675 372.392C-188.109 369.804 -187.132 362.458 -184.896 352.885C-184.111 349.434 -184.793 347.499 -188.575 342.567C-189.904 340.772 -190.865 337.674 -191.248 334.243C-191.59 329.448 -192.128 328.289 -194.833 325.675C-197.076 323.506 -199.235 322.439 -202.686 321.653C-210.304 320.029 -212.529 318.898 -218.784 313.488C-227.54 306.044 -227.999 305.727 -230.167 307.968C-231.441 309.287 -231.744 310.525 -231.065 312.33C-230.24 315.04 -231.449 316.423 -237.674 320.354C-239.536 321.487 -239.843 322.466 -239.7 327.069C-239.549 332.062 -239.345 332.642 -236.656 334.349C-230.359 338.396 -230.223 338.783 -232.141 344.199C-234.118 349.94 -233.188 351.222 -229.55 347.724C-226.361 344.557 -221.703 343.831 -218.809 346.118C-215.456 348.722 -216.52 351.01 -224.123 357.818C-232.493 365.288 -233.678 368.097 -231.348 375.323C-230.116 379.065 -229.931 382.306 -230.711 386.016C-231.245 388.945 -231.617 393.686 -231.439 396.538C-231.157 401.658 -231.157 401.658 -233.682 401.894C-235.109 401.918 -238.429 401.26 -240.975 400.329C-246.849 398.221 -250.09 398.404 -252.705 400.978C-255.512 403.749 -255.408 406.018 -252.029 410.178C-249.375 413.637 -248.266 417.77 -249.732 419.287C-250.879 420.474 -256.723 420.181 -258.108 418.842C-260.483 416.546 -261.257 412.991 -260.009 410.116C-257.95 405.347 -257.836 404.436 -259.491 402.453C-260.485 401.237 -262.251 400.423 -264.654 400.268C-267.186 400.116 -269.081 399.304 -270.862 397.582C-273.501 395.031 -273.721 393.543 -271.963 390.14C-269.324 385.166 -271.345 380.789 -276.139 381.128C-277.953 381.288 -279.558 382.287 -282.044 384.859C-286.631 389.735 -287.033 392.791 -283.956 398.189C-282.617 400.632 -281.339 403.27 -281.132 403.98C-280.573 406.306 -287.408 420.108 -289.092 420.265C-292.134 420.64 -295.89 417.265 -296.337 413.899C-296.927 409.757 -299.563 407.336 -303.452 407.53C-307.277 407.658 -308.33 406.768 -310.633 401.097C-312.395 396.716 -312.527 396.588 -314.531 396.946C-315.631 397.159 -317.301 398.094 -318.321 399.149C-320.361 401.259 -322.964 400.783 -325.932 397.914C-327.779 396.128 -332.464 395.298 -333.675 396.55C-333.93 396.814 -334.479 398.834 -334.831 401.046C-335.656 405.86 -340.237 411.125 -344.244 411.97C-346.572 412.398 -347.032 412.082 -351.463 407.16C-354.106 404.35 -357.219 400.574 -358.611 398.846C-361.201 395.321 -363.14 395.743 -362.102 399.553C-361.541 402.008 -364.492 407.701 -367.317 409.435C-370.333 411.366 -371.007 413.648 -370.02 418.302C-368.825 423.666 -369.587 424.587 -372.883 421.528C-376.575 418.087 -379.385 416.901 -380.86 417.898C-381.886 418.564 -381.68 419.274 -379.833 421.06C-377.326 423.483 -376.888 426.33 -378.653 429.344C-379.598 430.981 -381.082 431.46 -386.786 431.685L-393.722 431.994L-397.602 436.535C-402.626 442.392 -402.606 443.559 -396.984 446.061C-393.649 447.627 -392.466 448.516 -391.921 450.063C-391.235 452.258 -393.487 457.095 -396.738 460.458C-398.268 462.04 -398.632 463.473 -398.265 465.997C-397.908 467.872 -398.306 471.187 -398.98 473.469C-400.217 476.993 -400.072 477.898 -398.146 480.526C-393.961 486.23 -395.144 496.694 -400.112 498.268C-402.757 499.156 -406.892 496.305 -411.075 490.731C-416.917 482.914 -420.624 482.392 -424.338 489.005C-427.169 494.177 -428.47 493.939 -435.132 487.498C-440.607 482.205 -441.887 479.437 -439.847 477.327C-438.509 475.943 -439.224 472.062 -441.137 470.213C-443.776 467.662 -446.574 467.124 -450.052 468.609C-454.301 470.496 -455.829 472.208 -455.14 474.532Z" fill="#3a1010"/>
<path d="M479.26 383.622C478.955 384.73 478.85 386.159 478.991 386.805C479.411 388.614 482.726 389.013 484.256 387.431C485.977 385.651 485.986 378.645 484.357 378.218C482.86 377.918 479.928 380.951 479.26 383.622Z" fill="#3a1010"/>
<path d="M576.562 364.425C575.018 368.927 575.44 370.866 578.761 375.351C580.819 378.107 581.538 378.419 584.783 378.495C589.518 378.481 596.787 374.922 597.005 372.453C597.217 369.725 592.94 362.401 589.919 360.246C586.966 358.284 580.6 357.741 579.006 359.389C578.432 359.982 577.369 362.271 576.562 364.425Z" fill="#3a1010"/>
<path d="M435.237 797.837C436.432 803.202 442.779 802.577 444.24 796.974C445.092 793.716 443.693 791.599 440.578 791.521C437.204 791.447 434.467 794.542 435.237 797.837Z" fill="#3a1010"/>
<path d="M452.913 814.799C452.608 815.907 452.323 818.182 452.288 819.934C452.189 821.752 451.009 824.821 449.11 827.577C447.466 830.069 446.086 832.817 445.97 833.597C445.919 834.441 447.534 837.788 449.664 840.996L453.526 846.77L458.217 847.989C463.949 849.321 464.971 848.396 468.067 839.782C470.484 833.19 470.24 830.275 466.672 822.744C465.661 820.49 464.499 817.072 464.011 815.069C463.164 811.061 461.176 808.629 458.841 808.668C456.896 808.7 453.645 812.062 452.913 814.799Z" fill="#3a1010"/>
<path d="M281.215 1012.59C279.182 1018.91 279.462 1020.08 283.023 1019.69C288.655 1019.02 293.554 1009.59 289.992 1006.15C286.694 1002.96 283.682 1005.15 281.215 1012.59Z" fill="#3a1010"/>
<path d="M517.365 786.547C514.999 792.295 514.476 795.872 515.795 797.147C517.642 798.933 528.27 802.064 530.009 801.322C530.716 800.986 532.987 801.013 535.008 801.563C537.026 801.984 538.91 802.147 539.229 801.817C540.057 800.96 539.332 788.906 538.389 786.846C537.111 784.208 532.144 782.085 526.758 781.98C520.917 781.817 518.987 782.758 517.365 786.547Z" fill="#3a1010"/>
<path d="M424.818 912.896C424.196 914.463 424.102 916.541 424.573 917.506C425.173 918.469 425.853 924.101 426.345 930.061C426.706 936.023 427.248 941.139 427.512 941.394C427.71 941.585 427.547 943.469 427.13 945.617C426.163 949.785 427.668 954.301 431.032 957.553C432.219 958.701 433.356 960.693 433.506 961.858C433.944 964.705 437.506 968.149 443.005 971.042C447.914 973.62 449.207 973.339 454.265 969.427C457.722 966.775 457.982 966.771 462.942 968.505C467.512 970.245 468.225 970.169 470.788 968.31C472.324 967.116 474.762 965.519 476.177 964.847C481.71 962.16 486.122 958.389 487.366 955.255C487.985 953.558 488.407 951.669 488.2 950.959C487.435 947.923 489.789 945.224 494.754 943.52C497.465 942.696 499.843 941.424 500.155 940.706C500.404 940.053 500.166 937.527 499.607 935.201C498.978 932.552 499.056 929.566 499.801 927.608C500.485 925.845 500.781 924.218 500.451 923.899C500.187 923.644 497.116 922.333 493.658 921.158C486.282 918.491 485.097 917.473 483.39 912.506C482.642 910.508 480.568 906.845 478.84 904.408C476.982 901.974 474.987 899.153 474.255 898.062C472.588 895.43 471.874 895.377 462.634 897.542C458.306 898.587 451.377 899.286 447.353 899.223C443.394 899.094 438.859 899.429 437.311 899.974C433.763 901.135 426.306 908.849 424.818 912.896Z" fill="#3a1010"/>
<path d="M361.866 1017.35C360.607 1019.57 359.493 1022.7 359.458 1024.46C359.322 1027.9 360.444 1028.98 368.431 1033.26C372.49 1035.4 372.815 1035.46 377.381 1033.11C383.041 1030.29 384.687 1027.93 384.594 1022.48C384.481 1015.87 377.42 1008.91 371.265 1009.34C368.22 1009.59 364.703 1012.56 361.866 1017.35Z" fill="#3a1010"/>
<path d="M504.727 900.864C503.759 904.902 504.515 907.42 507.418 910.226C510.386 913.095 512.2 912.936 515.45 909.573C520.231 904.628 519.388 897.053 513.845 895.393C508.694 893.857 505.87 895.591 504.727 900.864Z" fill="#3a1010"/>
<path d="M550.178 869.165C550.176 872.863 552.287 874.904 557.108 876.121C565.511 878.122 569.703 876.69 569.616 871.632C569.561 868.389 566.159 862.932 563.215 861.489C561.056 860.422 554.54 862.541 551.991 865.178C550.971 866.233 550.094 868.064 550.178 869.165Z" fill="#3a1010"/>
<path d="M696.739 764.169C698.105 768.169 703.147 770.874 705.25 768.699C707.035 766.853 707.203 761.53 705.554 759.936C702.322 756.811 695.503 760.168 696.739 764.169Z" fill="#3a1010"/>
<path d="M1162.94 -221.287C1163.35 -220.256 1164.02 -218.97 1164.48 -218.523C1165.74 -217.311 1166.21 -208.692 1165.13 -207.571C1164.62 -207.043 1162.68 -206.233 1160.68 -205.745C1156.68 -204.641 1153.48 -201.993 1153.33 -199.461C1153.22 -198.032 1154.22 -196.816 1157.64 -194.148C1162.18 -190.396 1170.29 -178.854 1170.67 -175.422C1170.69 -174.514 1169.88 -172.49 1168.74 -170.784C1165.38 -166.123 1164.52 -155.6 1166.84 -149.151C1168.2 -145.281 1168.44 -142.885 1167.71 -140.278C1167.03 -138.256 1166.92 -133.129 1167.38 -128.856C1168.36 -120.763 1167.55 -118.868 1163.9 -120.235C1161.02 -121.355 1158.27 -119.428 1157.55 -116.042C1157.14 -113.506 1157.47 -112.927 1161.29 -109.488C1169.99 -101.589 1172.6 -92.9394 1168.51 -85.5411C1165.93 -81.0221 1163.48 -80.4623 1160.11 -83.7148C1158.66 -85.1178 1156.56 -86.51 1155.52 -86.8819C1152.19 -87.7997 1146.33 -85.1724 1142.13 -80.821C1137.22 -75.7444 1136.85 -74.7003 1138.35 -70.1844C1139.85 -66.0576 1138.59 -63.8311 1134.64 -63.1817C1133.42 -62.9666 1131.68 -62.0945 1130.79 -61.1715C1129.83 -60.3122 1127.97 -59.1785 1126.55 -58.7656C1125.13 -58.3528 1122.69 -56.6257 1121.03 -55.0412C1117.65 -51.5469 1117.27 -47.324 1120.11 -44.5817C1122.42 -42.3496 1132.07 -39.0072 1136.81 -38.7616C1144.54 -38.3062 1150.67 -32.8941 1147.29 -29.3998C1143.78 -25.7736 1145.72 -18.7998 1151.17 -15.1927C1152.74 -14.181 1156.06 -13.2631 1158.66 -13.1766C1161.26 -13.09 1164.06 -12.2933 1164.85 -11.528C1166.7 -9.74229 1166.76 -5.9809 1165.04 -4.2008C1163.45 -2.55255 1157.37 -1.4136 1151.59 -1.77163C1147.63 -2.03014 1146.85 -1.75776 1143.54 1.41119C1138.56 6.1646 1135.39 6.67136 1129.76 3.78088C1122.82 0.133729 1111.23 1.42917 1108.52 6.2097C1107.89 7.25811 1106.81 8.50862 1106.04 8.78097C1104.81 9.38511 1104.55 9.13001 1103.73 6.54887C1102.02 1.58222 1099.2 -0.381843 1095.59 0.845854C1092.55 1.8693 1092.49 1.93524 1092.86 4.58878C1094.03 12.0944 1092.9 14.4484 1088.47 13.6138C1085.03 12.9575 1082.47 15.2056 1085.22 16.5871C1091.24 19.6008 1096.76 19.9632 1101 17.6871C1102.54 16.883 1103.07 17.1337 1105.05 19.5658C1108.04 23.3435 1110.46 24.6655 1114.74 24.7241C1118.77 24.787 1120.42 26.6407 1122.87 33.4762C1124.78 38.7639 1126.42 39.7097 1131.26 38.267C1136.16 36.7583 1138.25 37.6318 1142.37 43.2719C1149.67 53.0108 1147.27 60.2514 1137.38 58.4697C1132.3 57.5161 1126.15 58.4616 1124.24 60.4395C1122.14 62.6152 1118.19 70.7896 1118.16 72.8011C1118.22 76.0437 1122.49 79.4107 1126.58 79.4077C1129.76 79.4197 1130.02 79.5451 1129.33 81.0485C1128.83 82.2245 1127.86 82.565 1125.72 82.2763C1124.03 82.0449 1122.22 82.3345 1121.58 82.9938C1121.01 83.5871 1119.91 87.4976 1119.13 91.5973C1117.94 97.9744 1117.45 99.28 1115.2 100.809C1111.55 103.4 1111.65 105.409 1115.61 109.236C1118.18 111.723 1118.85 113.009 1118.83 115.54C1118.92 117.289 1118.25 119.441 1117.35 120.364C1114.68 123.134 1115.37 125.846 1119.38 128.829C1122.6 131.175 1122.74 131.562 1122 133.78C1120.69 137.24 1122.4 138.25 1127.76 137.317C1131.45 136.672 1132.99 135.868 1135.67 133.099C1139.18 129.473 1142.02 128.777 1143.17 131.288C1143.57 132.189 1142.94 133.497 1141.03 135.475C1137.72 138.903 1137.55 140.268 1139.43 147.957C1140.2 151.252 1140.46 155.335 1140.04 156.964C1139.48 158.595 1139.58 160.734 1140.25 161.76C1141.38 163.623 1152.7 169.338 1156.8 170.113C1160.12 170.771 1167.08 175.197 1168.54 177.508C1169.28 178.598 1169.25 180.61 1168.62 182.177C1167.38 185.441 1167.85 186.277 1170.76 185.515C1173.21 184.955 1176.76 187.88 1177.27 190.921C1177.56 192.602 1176.55 194.176 1171.33 199.971C1165.6 206.294 1164.57 207.09 1160.32 208.588C1157.67 209.475 1153.4 210.065 1150.87 209.783C1146.38 209.403 1136.49 211.449 1134.84 213.163C1133.82 214.218 1137.57 217.593 1139.58 217.365C1140.49 217.221 1143.29 218.017 1145.9 219.012C1149.75 220.44 1150.87 221.265 1152.34 223.705C1154.08 226.66 1154.34 226.786 1159.2 226.64C1165.03 226.413 1166.55 227.491 1167.08 232.218C1167.3 233.966 1167.74 236.423 1168.15 237.584C1168.7 239.392 1168.07 240.57 1163.17 246.424C1158.15 252.541 1157.19 253.27 1154.09 254.1C1149.38 255.282 1146.13 258.774 1145.05 263.981C1143.97 269.059 1145.49 270.915 1151.09 271.73C1162.4 273.358 1163.51 273.664 1165.82 276.026C1167.14 277.302 1168.8 279.415 1169.53 280.635C1170.6 282.434 1171.65 283.065 1174.12 283.413C1175.81 283.645 1178.55 284.507 1179.99 285.391C1182.22 286.652 1183.26 286.635 1185.31 285.173C1189.35 282.447 1191.24 282.869 1197.36 287.892C1202.22 291.833 1203.2 292.271 1206.31 291.96C1209.1 291.719 1210.19 291.117 1211.65 288.952C1212.72 287.442 1214.13 286.121 1214.84 285.915C1217.1 285.294 1224.55 288.543 1227.45 291.349C1231.34 295.112 1235.76 295.687 1240.13 293.149C1244.43 290.548 1249.88 290.457 1253.69 292.989C1256.51 294.823 1256.64 295.21 1256.26 299.433C1255.2 309.506 1255.27 309.569 1258.31 313.152C1260.03 315.069 1262.1 318.603 1263.12 320.986L1264.81 325.304L1269.25 326.528C1272.63 327.38 1273.99 327.292 1275.21 326.039C1276.74 324.457 1276.6 324.2 1273.18 321.273C1268.83 317.453 1267.21 313.458 1268.43 309.286C1269.23 306.613 1269.61 306.347 1272.78 305.451C1276.97 304.279 1278.11 302.314 1276.18 299.427C1275.44 298.336 1274.25 296.669 1273.58 295.642C1271.59 292.821 1274.35 291.153 1278.85 292.571C1280.94 293.185 1283.6 293.465 1284.57 293.124C1285.6 292.848 1288.07 292.936 1290.15 293.421C1293.02 294.152 1294.18 293.873 1295.71 292.29C1298.32 289.587 1300.35 290.656 1301.07 294.926C1301.65 298.16 1301.98 298.608 1305.45 300.562C1307.48 301.76 1310.68 302.94 1312.37 303.171C1314.97 303.517 1316.03 304.278 1318.35 307.159C1320.73 310.233 1321.39 310.611 1323.92 310.504C1325.47 310.349 1326.96 310.129 1327.21 309.866C1328.04 309.009 1342.43 311.948 1343.68 313.16C1345.13 314.563 1348.2 315.485 1352.49 315.803C1356.12 316.002 1359.6 318.604 1358.33 319.922C1357.88 320.384 1355.16 320.689 1352.37 320.54C1348.02 320.288 1347.12 320.563 1346.76 322.126C1345.48 327.272 1350.52 333.805 1357.04 335.642C1358.41 336.074 1362.27 338.021 1365.55 340.042C1372.5 344.208 1372.64 344.724 1367.92 349.603C1365.24 352.372 1364.28 352.713 1359.74 352.788C1351.11 352.867 1350.45 356.056 1358.12 360.794C1360.55 362.376 1363.3 363.887 1364.21 364.261C1365.91 365.011 1369.52 363.524 1372.59 360.878C1374.64 359.157 1374.77 359.155 1377.87 362.542C1380.12 365.099 1382.35 366.489 1386.4 367.979C1393.38 370.522 1393.98 371.096 1394.92 376.724C1395.28 379.248 1396.52 382.99 1397.59 385.048C1398.6 387.172 1399.56 390.27 1399.66 392.02C1400.05 400.057 1405.64 408.268 1412.1 410.301C1414.19 410.915 1418.24 412.924 1421.06 414.758C1427.43 418.869 1433.1 420.915 1436.14 420.151C1437.5 419.804 1440.45 417.939 1442.75 415.954L1446.97 412.381L1448.89 414.62C1451.14 417.307 1451.53 417.171 1459.23 412.372C1462.7 410.239 1466.04 408.237 1466.74 407.771C1467.58 407.303 1468.32 404.956 1468.52 401.968C1469.1 393.85 1474.36 390.519 1480.2 394.638C1484.08 397.363 1485.62 396.689 1486.9 391.673C1487.51 389.587 1488.07 387.696 1488.32 387.433C1488.51 387.235 1490.58 386.941 1492.85 386.709C1497.71 386.303 1506.99 390.301 1510.23 394.074C1511.88 395.928 1511.96 396.77 1510.69 398.348C1508.85 400.779 1500.82 401.561 1495.28 399.902C1493.26 399.222 1491.11 398.803 1490.53 399.008C1489.88 399.148 1489.23 402.856 1489.11 407.205C1488.53 418.502 1490.24 419.771 1504.75 419.011C1512.79 418.618 1513.18 418.481 1516.49 415.053C1519.43 412.02 1519.8 411.106 1519.49 408.516C1519.12 405.474 1519.18 405.408 1522.28 404.318C1524.08 403.769 1526.39 402.174 1527.47 400.923C1529.44 398.491 1532.54 397.531 1534.06 398.998C1534.52 399.444 1536.34 399.544 1538.21 399.188C1540.09 398.833 1542.75 399.242 1544.59 400.25C1548.98 402.707 1549.04 402.771 1545.3 403.741C1543.42 404.226 1541.24 405.301 1540.47 406.092C1538.94 407.674 1535.62 407.145 1533.97 405.162C1531.98 402.86 1531.27 402.677 1528.63 403.823C1521.22 407.125 1524.59 414.335 1533.55 414.575C1535.3 414.611 1538.09 415.018 1539.92 415.507C1542.72 416.174 1543.25 416.555 1543.4 418.239C1543.79 421.541 1538.15 425.656 1531.94 426.797C1524.95 428.081 1522.66 430.455 1523.02 436.417C1523.19 438.879 1523.62 441.207 1523.95 441.526C1525.27 442.801 1530.59 442.583 1532.77 441.12C1534.31 440.056 1536.64 439.888 1539.63 440.357L1544.19 441.19L1548.46 436.772C1553.43 431.63 1554.98 431.345 1558.42 435.05C1561.13 438.054 1563.14 437.955 1564.06 434.762C1564.42 433.199 1563.62 432.044 1558.67 427.261C1555.51 424.2 1552.46 420.488 1551.85 419.136L1550.9 416.687L1555.53 414.145C1558.1 412.675 1561.65 411.513 1563.4 411.419L1566.7 411.299L1566.33 408.646C1565.83 405.476 1566.99 405.327 1569.96 408.196C1571.87 410.046 1571.94 410.499 1570.54 411.949C1569.2 413.334 1569.29 414.435 1570.64 417.786C1572.54 422.295 1572.04 423.471 1567.52 424.973C1565.97 425.518 1564.44 426.582 1564.12 427.3C1563.38 429.129 1565.29 431.108 1567.49 430.812C1568.33 430.733 1570.36 431.543 1572 432.619C1573.77 433.951 1576.97 434.742 1581.25 434.93C1587.09 435.222 1587.93 435.013 1589.78 432.712C1591.36 430.805 1591.67 429.437 1591.11 427.5C1590.36 425.113 1590.03 424.924 1586.07 424.406C1582.17 423.952 1581.77 423.699 1579.83 420.422C1577.16 415.796 1576.79 413.013 1578.72 411.943C1580.84 410.805 1590.79 412.65 1591.99 414.447C1592.52 415.217 1592.5 417.487 1591.89 419.573C1591.34 421.594 1591.18 423.607 1591.64 424.054C1592.03 424.436 1596.05 424.11 1600.45 423.259C1608.98 421.689 1608.4 422.023 1614.1 413.755C1616.76 409.819 1619.03 410.105 1622.17 414.918C1624.1 417.935 1625.15 418.826 1627.63 419.693C1632 421.112 1632.62 422.983 1629.69 426.016C1623.76 432.148 1622.76 438.456 1626.51 445.141C1628.78 449.125 1637.39 455.274 1642.34 456.36C1645.59 457.084 1651.98 455.097 1656.27 451.976C1658.52 450.317 1659.02 449.401 1659.22 446.154C1659.71 440.243 1656.86 433.414 1651.57 427.533C1649.13 424.785 1647.13 422.093 1647.26 421.702C1647.56 420.335 1660.16 417.336 1662.96 418.003C1668.04 419.086 1671.14 418.775 1672.74 417.127C1673.63 416.204 1676.78 414.53 1679.62 413.445C1683.23 412.087 1686.5 410.022 1690.07 406.719C1695.12 402.289 1695.64 402.021 1699.21 402.415C1701.88 402.695 1704.2 402.138 1707.41 400.268C1709.92 398.864 1713.47 397.573 1715.34 397.347C1721.04 396.733 1726.71 394.433 1731.38 390.788C1735.99 387.208 1739.99 385.715 1743.63 386.303C1747.21 386.827 1749.28 382.576 1746.7 380.089C1745.12 378.558 1746.13 376.725 1749.72 374.59C1755.44 371.316 1758.82 363.865 1756.79 359.228C1755.3 355.749 1755.68 351.137 1757.66 349.094C1759.7 346.984 1775.28 344.324 1791.29 343.345C1802.44 342.641 1805.35 342.138 1808.62 340.073C1814.59 336.276 1815.52 333.86 1815.59 322.831C1815.64 310.375 1817.78 306.966 1819.69 316.081C1820.68 320.606 1823.46 323.803 1828.16 325.671C1832.08 327.163 1833.29 326.17 1834.17 320.771C1835 316.086 1837.93 312.664 1840.91 312.745C1842.14 312.789 1845.08 313.584 1847.49 314.516C1852.72 316.505 1854.78 315.952 1859.12 311.469C1860.9 309.623 1863.21 307.768 1864.24 307.492C1866.95 306.668 1873.9 295.525 1874.78 290.515C1875.43 286.936 1876.07 285.888 1879.07 283.567C1881.25 281.845 1882.46 280.462 1882.32 279.686C1881.83 277.943 1883.75 276.484 1887.51 275.902C1889.45 275.61 1891.71 274.989 1892.54 274.651C1895.18 273.374 1898.81 265.659 1898.8 261.313C1898.79 256.448 1899.93 255.132 1904.71 253.885C1907.23 253.259 1908.77 252.325 1909.78 250.622C1910.79 249.178 1912.46 247.853 1914.13 247.306C1919.1 245.602 1919.79 244.098 1917.38 240.116C1913.38 233.696 1915.37 228.603 1919.68 234.304C1921.61 236.932 1922.07 237.119 1924.58 236.234C1926.13 235.689 1929.02 234.02 1930.94 232.56C1935.36 229.179 1940.02 228.582 1946.41 230.552C1951.76 232.279 1954.35 231.847 1959.48 228.778C1962.89 226.71 1970.44 224.444 1972.97 224.726C1973.56 224.781 1975.13 225.534 1976.37 226.227C1978.93 227.806 1981.32 227.312 1983.93 224.609C1986.61 221.84 1988.43 222.199 1992.72 226.344C1997.4 230.872 2002.31 232.931 2005.14 231.587C2006.23 231.114 2008.4 229.132 2009.86 227.227C2012.91 223.284 2014.85 222.733 2018.19 224.818C2021.73 226.965 2023.8 226.411 2024.39 223.028C2024.93 220.489 2024.66 219.975 2021.71 218.013C2016.65 214.529 2015.13 212.543 2013.74 207.636C2012.57 203.699 2012.04 202.929 2009.69 201.8C2006.35 200.234 2006.21 199.718 2007.23 194.576C2007.77 192.167 2007.52 188.992 2006.57 186.413C2005.69 184.157 2004.99 181.444 2005.1 180.405C2005.32 177.676 2002.22 175.068 1998.39 174.678C1994.81 174.283 1991.46 171.42 1990.29 167.871C1989.34 165.033 1992.41 162.776 1998.81 161.697C2001.6 161.196 2004.17 160.116 2005.32 158.929C2007.93 156.226 2009.07 150.693 2007.9 146.885C2005.64 139.592 2004.77 134.158 2004.83 126.307C2004.75 118.329 2004.62 117.813 2001.92 115.976C1999.69 114.456 1998.89 113.172 1998.06 109.813L1997.01 105.484L2001.53 100.544C2003.95 97.9086 2007.78 94.0826 2009.88 92.0366C2015.25 87.0173 2016.3 83.9509 2014.14 79.3161C2012.59 76.0334 2011.93 75.3957 2007.02 72.4285C2004.07 70.5963 2000.45 67.8669 1998.87 66.3364C1997.35 64.7399 1995.11 63.0904 1993.81 62.7228C1992.57 62.419 1991.52 61.7877 1991.52 61.3986C1991.5 60.2313 1996.87 59.4285 1998.96 60.3019C2001.25 61.237 2008.31 61.0546 2011.54 59.9631C2012.7 59.5546 2014.43 58.423 2015.45 57.3681C2017.24 55.5221 2025.63 49.4793 2034.61 43.6215C2038.2 41.2264 2042.42 37.2642 2049.04 30.1481C2057.32 21.1881 2058.73 19.997 2061.19 19.567C2064.61 18.9262 2071.91 13.3557 2070.73 12.2078C2070.26 11.7614 2067.85 11.2176 2065.39 10.9991C2059.34 10.5157 2057.94 8.13884 2061.45 4.5127C2062.85 3.06224 2065.8 1.32653 2068 0.511655C2070.58 -0.309685 2074.17 -2.57502 2077.94 -5.81636C2082.8 -10.0488 2085.24 -11.3868 2092.72 -14.1059C2098.13 -16.142 2102.85 -17.1935 2104.48 -16.8962C2108.45 -16.1189 2110.03 -18.675 2108.33 -23.2526C2107.51 -25.4446 2107.34 -27.7771 2108.03 -29.2805C2108.66 -30.5884 2109.59 -33.0041 2110.08 -34.5691C2110.64 -36.2001 2113.23 -39.9409 2115.9 -42.9694C2119.34 -46.9187 2121.11 -49.6726 2121.9 -52.605C2122.88 -55.8648 2123.51 -56.9132 2125.51 -57.7897C2126.8 -58.4598 2129.87 -60.9759 2132.23 -63.4153C2136.31 -67.6348 2136.76 -67.8369 2140.97 -67.8421L2145.45 -67.8517L2153.35 -76.1567C2157.75 -80.8355 2162.01 -85.6419 2162.77 -86.9519C2163.65 -88.264 2166.08 -90.6397 2168.32 -92.2987C2172.1 -95.0212 2172.35 -95.4146 2172.05 -97.8747C2171.83 -99.6225 2170.62 -101.678 2168.64 -103.592C2167.06 -105.252 2164.6 -108.779 2163.32 -111.417C2162.04 -114.056 2160.43 -117.143 2159.7 -118.233C2157.64 -121.118 2153.24 -120.526 2147.79 -116.608C2145.36 -114.881 2141.63 -113.003 2139.56 -112.579C2137.42 -112.219 2134.46 -111.132 2132.85 -110.392C2130.92 -109.452 2128.78 -109.351 2126.11 -110.15C2121.41 -111.629 2119.86 -110.954 2119.15 -107.31C2118.49 -103.991 2115.23 -101.147 2113.46 -102.35C2112.41 -102.981 2112.71 -104.349 2114.6 -107.883C2116.48 -111.417 2116.96 -113.631 2116.46 -116.542C2116.16 -118.742 2116.45 -121.017 2117.15 -121.743C2118.3 -122.929 2124.36 -125.106 2131.21 -126.777L2134.63 -127.677L2136.75 -132.513C2138.93 -137.674 2140.53 -139.062 2145.82 -140.578C2148.79 -141.405 2149.18 -141.671 2149.91 -144.278C2150.34 -145.777 2150.48 -148.958 2150.18 -151.159C2149.51 -156.143 2150.36 -159.53 2153.72 -164.192C2155.75 -167.08 2156.24 -168.775 2155.98 -172.727C2155.57 -177.716 2153.97 -179.895 2149.21 -181.697C2147.9 -182.194 2147.96 -182.649 2149.68 -184.429C2151.27 -186.077 2151.76 -187.772 2151.57 -191.402C2151.32 -198.404 2152.66 -203.356 2155.66 -206.455C2158.4 -209.29 2159.36 -213.847 2159.81 -225.66C2160.18 -237.668 2157.77 -238.601 2146.16 -230.818C2141.93 -228.023 2137.76 -224.905 2136.81 -223.916C2135.85 -222.927 2132.89 -221.451 2130.18 -220.497C2126.12 -219.068 2124.77 -218.202 2122.36 -215.048C2120.78 -213.011 2118.35 -210.765 2117.13 -210.161C2115.52 -209.42 2114.18 -208.036 2112.98 -205.875C2111.1 -202.471 2102.95 -196.821 2098.82 -195.974C2096.17 -195.476 2094.38 -193.759 2091.74 -188.915C2090.04 -185.838 2089.08 -184.979 2086.12 -183.762C2084.18 -182.951 2081.17 -181.15 2079.31 -179.756C2075.28 -176.641 2067.96 -175.546 2061.45 -177.124C2057.09 -178.155 2053.4 -177.25 2052.86 -174.841C2052.33 -172.043 2048.79 -173.93 2039.64 -181.887C2031.93 -188.57 2030.01 -190.679 2028.8 -193.383C2027.99 -195.316 2026.13 -198.009 2024.54 -199.54C2023.03 -201.007 2021.17 -203.441 2020.43 -204.921C2019.56 -206.658 2017.84 -208.445 2015.68 -209.772C2011.02 -212.743 2009.62 -214.861 2010.28 -217.921C2010.63 -220.002 2011.08 -220.594 2012.5 -220.747C2015.09 -221.05 2017.01 -218.681 2018.59 -213.583C2019.83 -209.711 2020.23 -209.069 2021.65 -209.222C2022.95 -209.374 2023.51 -210.486 2024.35 -214.522C2024.95 -217.256 2025.75 -219.929 2026.2 -220.391C2026.64 -220.852 2026.8 -222.866 2026.51 -224.937C2025.93 -228.56 2026.06 -228.692 2029.14 -230.17C2033.32 -232.251 2034.05 -235.636 2031.31 -240.196C2030.24 -241.995 2029.21 -245.286 2028.98 -247.553C2028.81 -249.756 2027.84 -253.113 2026.9 -254.914C2023.82 -260.701 2028.19 -263.368 2033 -258.712C2034.06 -257.692 2035.76 -256.812 2036.86 -256.895C2038.55 -256.923 2038.86 -257.253 2039.66 -259.926C2040.15 -261.621 2039.92 -264.017 2039.18 -265.497C2038.5 -266.913 2038.15 -268.399 2038.41 -268.663C2038.73 -268.992 2040.88 -268.315 2043.3 -267.252C2050.03 -264.185 2058.63 -265.95 2056.81 -270.006C2056.41 -270.908 2054.97 -271.273 2052.77 -270.977C2048.89 -270.523 2048.09 -271.808 2048.77 -277.268C2049.18 -280.064 2049.3 -280.196 2051.95 -280.824C2053.76 -281.243 2055.24 -282.241 2056 -283.421C2057.07 -285.32 2056.87 -285.641 2051.99 -290.36C2048.55 -293.677 2046.1 -296.944 2044.35 -300.288C2043.01 -302.991 2041.28 -305.816 2040.55 -306.518C2038.18 -308.814 2033.95 -309.457 2029.88 -308.287C2023.81 -306.499 2021.28 -306.911 2019.22 -309.796C2018.22 -311.142 2015.23 -315.049 2012.52 -318.442C2009.8 -321.835 2007.54 -325.171 2007.46 -325.883C2007.38 -326.595 2004.6 -329.663 2001.31 -332.722C1996.89 -336.865 1994.51 -339.809 1992.03 -344.244C1987.81 -351.894 1985.83 -353.807 1979.04 -356.419C1974.6 -358.161 1972.43 -359.617 1967.62 -364.273C1960.63 -371.033 1959.32 -371.66 1948.26 -373.681C1940.38 -375.172 1939.41 -375.091 1935.62 -372.888C1933.37 -371.618 1929.91 -369.225 1927.92 -367.7C1924.6 -365.05 1911.96 -360.299 1907.3 -359.832C1906.14 -359.683 1903.92 -360.424 1902.41 -361.502C1898.99 -363.781 1897.3 -364.272 1890.8 -365.072C1887.94 -365.413 1885.33 -366.019 1884.81 -366.529C1884.34 -366.975 1881.4 -368.159 1878.28 -369.015C1875.21 -369.937 1872.21 -371.055 1871.75 -371.501C1870.23 -372.968 1870.14 -378.156 1871.59 -380.581C1873.67 -383.924 1873.86 -388.468 1872.1 -392.461C1870.48 -396.066 1870.67 -396.524 1874.82 -400.42C1876.86 -402.27 1879.39 -402.637 1893.85 -403.071C1905.71 -403.334 1911.21 -404.009 1912.95 -405.14C1914.42 -406.138 1916.81 -406.632 1919.35 -406.35C1921.62 -406.063 1923.76 -406.164 1924.15 -406.559C1925.67 -408.141 1936.68 -409.751 1940.52 -408.972C1944.42 -408.129 1948.62 -409.431 1951.42 -412.332C1952.19 -413.123 1954.69 -414.657 1956.94 -415.797L1961.12 -417.877L1960.74 -424.877C1960.46 -430.257 1960.81 -432.598 1962.39 -435.024C1964.28 -437.78 1964.74 -437.982 1967.66 -437.577C1977.16 -436.178 1980.05 -437.588 1983.36 -445.363C1986.66 -453.008 1988.06 -454.717 1992.18 -456.602C1997.33 -458.893 1997.84 -459.68 1997.74 -465.257C1997.76 -467.917 1998.02 -471.49 1998.19 -473.114C1998.49 -474.741 1997.98 -477.781 1997.1 -479.908C1996.22 -481.904 1995.3 -486.365 1995.05 -489.669C1994.64 -494.787 1994.16 -496.141 1991.79 -498.437C1988.16 -501.945 1985.24 -501.961 1972.78 -498.705C1966.32 -497.041 1962.43 -496.587 1960.93 -497.275C1954.46 -500.217 1949.81 -502.669 1948.89 -503.562C1948.36 -504.072 1945.17 -504.733 1941.79 -505.066C1938.41 -505.269 1934.19 -505.783 1932.3 -506.206C1927.02 -507.351 1923.8 -506.389 1917.52 -501.744C1910.15 -496.367 1908.14 -492.83 1910.52 -489.886C1911.72 -488.349 1911.8 -487.377 1910.85 -485.74C1908.27 -481.48 1908.14 -481.089 1908.97 -478.118C1910.21 -474.117 1909.3 -470.145 1906.32 -466.268C1903.34 -462.391 1901.52 -462.62 1899.95 -467.2C1898.37 -471.909 1895.68 -474.005 1891.41 -473.545C1886.94 -473.146 1883.94 -470.307 1883.11 -465.752C1882.81 -463.996 1881.62 -461.576 1880.6 -460.521C1879.52 -459.4 1878 -457.299 1877.18 -455.664C1875.92 -453.308 1875.03 -452.644 1872.12 -451.882C1869.28 -451.186 1868.06 -450.323 1866.22 -447.762C1864.39 -445.072 1861.95 -443.475 1853.79 -439.122C1848.13 -436.174 1842.09 -432.7 1840.23 -431.307C1836.07 -428.189 1834.59 -427.71 1826.04 -426.53C1822.29 -425.949 1818.34 -425.3 1817.31 -425.023C1816.34 -424.683 1813.75 -424.899 1811.59 -425.447C1805.8 -426.972 1804.19 -426.232 1803.61 -422.071C1802.92 -416.61 1801.68 -417.044 1794.34 -425.16C1789.39 -430.462 1787.53 -433.156 1786.83 -435.739C1785.66 -439.806 1783.94 -441.724 1780.36 -442.637C1778.92 -443.003 1776.96 -444.138 1775.84 -445.092C1773.79 -447.069 1769.8 -449.273 1764.71 -451.264C1760.4 -452.879 1757.09 -456.457 1756.38 -460.078C1756.09 -461.76 1755.34 -464.148 1754.73 -465.5C1753.52 -468.074 1751.5 -468.365 1744.78 -466.956C1743.16 -466.605 1741.34 -466.964 1740.42 -467.857C1737.52 -470.663 1730.46 -473.659 1725.39 -474.094C1722.6 -474.372 1719.6 -475.23 1718.81 -475.996C1718.02 -476.761 1714.54 -478.714 1711.08 -480.278C1706.5 -482.408 1703.42 -484.497 1699.79 -488.005C1695.37 -492.278 1694.39 -492.845 1691.6 -492.734C1688.94 -492.755 1687.78 -492.087 1684.91 -489.12C1681.73 -485.823 1681.54 -485.236 1681.87 -481.09C1682.04 -478.628 1682.75 -475.267 1683.49 -473.657C1684.17 -471.982 1684.65 -470.238 1684.53 -469.717C1684.48 -469.133 1685.02 -467.714 1685.76 -466.494C1686.62 -465.276 1687.72 -461.921 1688.29 -458.946C1688.86 -455.972 1689.62 -453.195 1690.08 -452.749C1691.53 -451.346 1690.59 -449.189 1686.4 -443.93L1682.27 -438.737L1675.47 -438.299C1662.83 -437.505 1656.92 -434.164 1658.63 -428.937C1659.73 -425.582 1659.35 -424.798 1656.43 -424.814C1655.07 -424.727 1653.17 -425.927 1650.86 -428.16C1648.88 -430.073 1646.85 -431.531 1646.27 -431.327C1644.27 -430.839 1641.51 -425.344 1641.31 -421.319L1641.12 -417.294L1637.7 -416.653C1634.53 -416.147 1634.08 -415.815 1632 -412.212C1630.8 -410.052 1629.24 -406.458 1628.5 -404.24C1626.84 -399.217 1625.42 -398.675 1623.03 -402.138C1620.7 -405.278 1615.87 -407.144 1610.88 -406.607C1606.8 -406.215 1605.59 -405.221 1605.7 -402.434C1605.68 -399.644 1608.65 -397.034 1612.16 -396.703C1616.57 -396.257 1619.29 -393.124 1619.3 -388.388C1619.34 -386.184 1619.05 -384.038 1618.61 -383.577C1617.59 -382.522 1614.41 -382.663 1610.3 -383.957C1605.86 -385.311 1604.34 -383.339 1605.98 -378.436C1607.28 -374.631 1610.66 -370.6 1612.8 -370.311C1613.45 -370.192 1615.78 -370.62 1618.04 -371.242C1622.95 -372.621 1623.86 -372.506 1631.71 -368.355C1638.65 -364.708 1638.85 -364.257 1635.11 -359.2C1631.18 -353.945 1630.86 -353.615 1626.53 -352.57C1621.49 -351.449 1619.51 -350.053 1611.78 -342.724C1606.1 -337.246 1605.33 -336.844 1597.78 -334.578C1591.2 -332.522 1589.45 -332.428 1587.61 -333.695L1585.31 -335.279L1580.41 -329.683C1575.77 -324.481 1575.19 -324.147 1572.85 -324.497C1571.42 -324.733 1569.45 -325.738 1568.4 -326.759C1565.43 -329.629 1563.03 -329.783 1559.3 -327.516C1553.53 -323.917 1552.1 -323.634 1549.35 -325.404C1547.91 -326.288 1545.43 -327.155 1543.93 -327.325C1540.16 -327.652 1538.64 -329.378 1538.84 -333.014C1539.09 -337.235 1537.51 -338.506 1535.81 -335.688C1531.01 -327.824 1530.82 -327.756 1518 -326.635C1514.88 -326.453 1512.82 -325.641 1511.36 -324.124C1508.42 -321.091 1507.58 -321.142 1500.52 -324.139C1490.98 -328.132 1491.63 -328.143 1487.81 -324.187C1485.32 -321.615 1483.33 -320.35 1480.49 -319.654C1477 -318.817 1476.22 -318.934 1473.91 -321.166C1471.6 -323.398 1470.82 -323.515 1465.52 -322.649C1462.28 -322.076 1457.5 -321.088 1454.85 -320.46C1448.85 -318.869 1440.35 -318.533 1435.02 -319.612L1430.85 -320.451L1430.41 -323.427C1429.98 -326.015 1430.95 -333.362 1433.19 -342.935C1433.97 -346.386 1433.29 -348.321 1429.51 -353.253C1428.18 -355.047 1427.22 -358.145 1426.84 -361.577C1426.5 -366.371 1425.96 -367.53 1423.25 -370.145C1421.01 -372.313 1418.85 -373.38 1415.4 -374.166C1407.78 -375.791 1405.56 -376.921 1399.3 -382.332C1390.55 -389.776 1390.09 -390.093 1387.92 -387.851C1386.64 -386.532 1386.34 -385.295 1387.02 -383.49C1387.84 -380.779 1386.64 -379.396 1380.41 -375.466C1378.55 -374.332 1378.24 -373.354 1378.39 -368.75C1378.54 -363.758 1378.74 -363.177 1381.43 -361.471C1387.73 -357.424 1387.86 -357.037 1385.94 -351.62C1383.97 -345.879 1384.9 -344.597 1388.53 -348.096C1391.72 -351.262 1396.38 -351.989 1399.28 -349.701C1402.63 -347.097 1401.56 -344.809 1393.96 -338.001C1385.59 -330.532 1384.41 -327.723 1386.74 -320.496C1387.97 -316.754 1388.15 -313.513 1387.37 -309.803C1386.84 -306.875 1386.47 -302.133 1386.65 -299.282C1386.93 -294.162 1386.93 -294.162 1384.4 -293.925C1382.98 -293.901 1379.66 -294.56 1377.11 -295.491C1371.24 -297.598 1368 -297.415 1365.38 -294.841C1362.57 -292.07 1362.68 -289.801 1366.06 -285.641C1368.71 -282.182 1369.82 -278.049 1368.35 -276.533C1367.21 -275.346 1361.36 -275.638 1359.98 -276.977C1357.6 -279.273 1356.83 -282.828 1358.08 -285.703C1360.13 -290.473 1360.25 -291.383 1358.59 -293.366C1357.6 -294.582 1355.83 -295.396 1353.43 -295.551C1350.9 -295.704 1349 -296.515 1347.22 -298.237C1344.58 -300.788 1344.36 -302.277 1346.12 -305.679C1348.76 -310.653 1346.74 -315.031 1341.95 -314.691C1340.13 -314.532 1338.53 -313.532 1336.04 -310.961C1331.45 -306.084 1331.05 -303.028 1334.13 -297.63C1335.47 -295.188 1336.75 -292.549 1336.95 -291.839C1337.51 -289.513 1330.68 -275.712 1328.99 -275.554C1325.95 -275.179 1322.19 -278.555 1321.75 -281.921C1321.16 -286.062 1318.52 -288.484 1314.63 -288.289C1310.81 -288.161 1309.75 -289.052 1307.45 -294.722C1305.69 -299.104 1305.56 -299.231 1303.55 -298.874C1302.45 -298.661 1300.78 -297.725 1299.76 -296.67C1297.72 -294.56 1295.12 -295.036 1292.15 -297.906C1290.31 -299.691 1285.62 -300.522 1284.41 -299.269C1284.15 -299.005 1283.61 -296.985 1283.25 -294.774C1282.43 -289.96 1277.85 -284.694 1273.84 -283.849C1271.51 -283.421 1271.05 -283.738 1266.62 -288.659C1263.98 -291.469 1260.87 -295.245 1259.47 -296.973C1256.88 -300.498 1254.94 -300.077 1255.98 -296.267C1256.54 -293.811 1253.59 -288.118 1250.77 -286.385C1247.75 -284.453 1247.08 -282.172 1248.07 -277.517C1249.26 -272.153 1248.5 -271.232 1245.2 -274.291C1241.51 -277.733 1238.7 -278.918 1237.22 -277.921C1236.2 -277.255 1236.41 -276.545 1238.25 -274.759C1240.76 -272.336 1241.2 -269.489 1239.43 -266.476C1238.49 -264.838 1237 -264.359 1231.3 -264.135L1224.36 -263.825L1220.48 -259.284C1215.46 -253.427 1215.48 -252.26 1221.1 -249.759C1224.44 -248.192 1225.62 -247.304 1226.16 -245.756C1226.85 -243.562 1224.6 -238.724 1221.35 -235.362C1219.82 -233.779 1219.45 -232.346 1219.82 -229.822C1220.18 -227.947 1219.78 -224.632 1219.1 -222.35C1217.87 -218.827 1218.01 -217.921 1219.94 -215.293C1224.12 -209.589 1222.94 -199.126 1217.97 -197.551C1215.33 -196.664 1211.19 -199.514 1207.01 -205.088C1201.17 -212.905 1197.46 -213.428 1193.75 -206.814C1190.92 -201.642 1189.61 -201.88 1182.95 -208.321C1177.48 -213.614 1176.2 -216.383 1178.24 -218.492C1179.58 -219.877 1178.86 -223.757 1176.95 -225.607C1174.31 -228.158 1171.51 -228.695 1168.03 -227.21C1163.78 -225.323 1162.26 -223.611 1162.94 -221.287Z" fill="#3a1010"/>
<path d="M1099.59 208.17C1100.67 210.487 1104.78 211.911 1106.12 210.526C1108.1 208.483 1106.88 205.908 1103.69 205.247C1100.51 204.716 1098.58 206.046 1099.59 208.17Z" fill="#3a1010"/>
<path d="M1232.71 302.809C1235.01 305.041 1241.12 305.199 1243.16 303.089C1245.07 301.111 1243.35 299.453 1238.47 298.561C1236.06 298.147 1234.12 298.439 1232.84 299.498C1231.12 300.889 1231.12 301.278 1232.71 302.809Z" fill="#3a1010"/>
<path d="M1248.27 328.823C1249.01 330.432 1250.77 330.857 1251.91 329.67C1253.25 328.286 1252.45 326.612 1250.56 326.449C1248.29 326.292 1247.46 327.149 1248.27 328.823Z" fill="#3a1010"/>
<path d="M1310.18 326.691C1307.53 331.016 1307.47 331.082 1309.93 334.479C1313.11 338.837 1317.39 342.075 1320.24 342.157C1323.62 342.231 1334.83 337.763 1335.77 335.996C1336.15 335.211 1336.35 332.224 1336.11 329.568C1335.84 324.837 1335.7 324.58 1331.63 321.404C1324.66 315.811 1324.14 315.69 1319.95 317.382C1315.5 319.077 1314.23 320.396 1310.18 326.691Z" fill="#3a1010"/>
</g>
</svg>
