<svg version="1.0" xmlns="http://www.w3.org/2000/svg" width="465.333" height="450.667" viewBox="0 0 349 338"><path d="M144.6 3.5c-1.9 1.5-1.9 1.5.5 1.5 2.6 0 19.4 3.4 21.9 4.4.8.3 5.6 1.1 10.5 1.6 9.9 1 18 2.4 20.9 3.6 1.2.5 1.7.4 1.3-.3-.3-.5-2.5-1.5-4.9-2.3-2.4-.7-6.7-2.1-9.6-3.1-2.9-1.1-7.1-1.9-9.3-1.9-2.2 0-4.9-.5-6-1.1-3.5-1.8-15.7-3.7-16.8-2.6-.7.7-1.8.7-3.6-.1-3.1-1.4-2.6-1.5-4.9.3zM102.1 19.4c-.7.8-2.7 1.7-4.6 2-1.9.4-4.7 1.8-6.1 3.1-1.6 1.5-3.9 2.5-5.5 2.5-4.8 0-17.2 2.1-19.8 3.3-1.4.7-3.6 3.4-5 6.1-1.4 2.6-3.7 5.4-5.1 6.1-4 2-12.2 4.6-15.5 5-4.5.5-8.6 1.8-12.5 4C23.7 54 16 62 16 64c0 .8-.9 3.2-2 5.2-1.1 2.1-2.4 5.9-3 8.5-.6 2.7-1.2 5.7-1.5 6.8-.2 1.2-2 2.9-4 3.8C2.7 89.7 2 90.5 2 92.9c0 2.9.2 3 4.8 3.3 4 .3 4.7.6 5 2.5.3 1.9-.1 2.3-2.5 2.4-1.6 0-2.2.3-1.3.6 2.6 1 6.1 5.5 5.6 7-.5 1.1-1.6 1.3-4.9.8-3.2-.5-4.6-.3-5.6.8-1.7 2.1-.3 2.7 6.3 2.8 3.1.1 5.6.6 5.6 1 0 .5.6.9 1.4.9 1.9 0 4.6 3.9 4.6 6.6 0 1.2.7 2.7 1.5 3.4 1.4 1.2 1.4 1.5-.1 3.1-2.4 2.7-1.4 5.5 1.9 5.1 1.9-.2 2.7.1 2.7 1.1 0 2.8-1.2 4.7-3 4.7-2.2 0-3.8 1.9-1.8 2.1.7.1 2.5 0 4-.1 5.1-.3 8 10.1 3 10.8-2.2.3-4 2.7-2.9 3.8.3.3 1.4.1 2.5-.5 1.5-.8 2.3-.7 3.2.4 1 1.3.8 2-1.3 3.9-1.4 1.3-3.2 2.6-3.9 2.8-.9.3-1.3 2.6-1.3 7.3 0 6.4-.2 6.9-2.3 7.5-3.3.7-3.1 2.4.4 3 1.6.3 2.9 1.1 2.9 2 0 1.8-6.5 3.3-8.2 1.8-.7-.5-1.7-.7-2.2-.3-1.3.8.8 4.5 2.6 4.5 1.9 0 3 2.8 2.5 6.2-.3 2.3-1.2 3.4-3.3 4.2-2.9 1-3.8 2.9-1.9 4.1 1 .6 7.8-1.3 9.5-2.7.5-.4 1.8-.8 3-.8s2.6-.5 3.2-1.1c.6-.6 1.6-.8 2.2-.5 2.1 1.3 1.1 3.5-1.9 4.3-4.1 1.1-4.2 2.7-.2 3.1 1.8.2 3.2-.1 3.2-.7s1.1-1.1 2.5-1.1c2.3 0 2.5.4 2.5 4.4 0 2.6-.5 4.6-1.2 4.9-.7.2-1 .8-.6 1.2.4.4 1.9 0 3.4-1 1.7-1.1 2.9-1.4 3.6-.7 1.3 1.3 0 5.2-1.8 5.2-.8 0-1.4.7-1.4 1.5s.8 1.5 1.9 1.5c1.7 0 1.9.9 1.9 10.4v10.5l-6.9 3.3c-3.8 1.8-6.9 3.6-6.9 4 0 .5-.6.8-1.3.8-.8 0-2.4 1.1-3.7 2.5-1.3 1.4-3.1 2.5-4.1 2.5-.9 0-2.1.6-2.8 1.3-.8 1.1-.5 1.3 1.8.9 6.2-.9 4.1 3.9-2.4 5.4-4.8 1.1-13.4 8.2-13.5 11.1 0 .7.9 1.3 2 1.3 2.8 0 2.5 2.8-.6 6.1-1.4 1.5-2.3 3.2-2 3.8 1 1.6 6.8 1.4 10.9-.4 6.5-2.7 13.2-1.6 11 1.7-2.3 3.7-4.5 19.8-2.7 19.8.3 0 1.7-.9 3-1.9 2.9-2.3 10-3.7 11.7-2.3 1.6 1.3 7.7.3 8.4-1.4.8-2.2 2.9-1.6 4.1 1.1 1.5 3.3 2.2 3.2 6.8-1 4.3-4 4.9-4.2 5.8-1.8.8 2-2.1 6.3-5.3 7.9-3.4 1.7-4.8 3.4-3 3.4.8 0 2.1-.6 2.8-1.3 1-1 1.5-.8 2.6.7.8 1 1.8 1.5 2.4 1.2 1.8-1.2 3 3 2.4 8.7-.6 6.2-.1 6.9 2.7 3.4l1.8-2.2 1.1 2.8c.6 1.6 1.1 3.7 1.1 4.7s.3 2.6.6 3.5c.6 1.4 1 1.3 3-1.1 1.3-1.5 2.4-3.9 2.4-5.4 0-2.9 3.9-8.4 9.8-13.8 2.9-2.7 4.8-3.5 9.1-3.9 4.2-.5 5.3-.3 4.9.7-.4 1.2-2.1 2.3-10.1 6.6-4.8 2.6-2.3 2.7 7.5.4 13.7-3.2 40-6.9 49.8-6.9h5.5l-3.5 1.5c-3 1.3-13.8 3.3-27.5 5-8.2 1-26.5 7.7-26.5 9.6 0 1.1.3 1 3.6-.7 1.6-.8 3.9-1.5 5.1-1.5 1.2 0 3.4-.5 4.9-1 1.8-.7 3-.7 3.9 0 .9.7 2.1.7 3.9 0 1.5-.5 4-1 5.5-1 1.6 0 3.4-.7 4.1-1.5.9-1.1 2.3-1.4 4.5-.9 1.7.3 5.8-.1 9.1-1 6.6-1.6 21.7-3.6 28-3.6 3.6 0 4.3-.3 4.8-2.5.5-1.8 1.5-2.6 4.1-3.1 5.5-1 7.7.1 12.8 6.5 3.7 4.6 5.8 6.3 9.4 7.5 4.4 1.5 4.9 1.5 8.6-.4 3-1.6 4.2-1.8 5.3-.9 1.7 1.4 8.3.5 12.5-1.6 1.5-.8 3.6-1.5 4.7-1.5 1 0 3.3-1.6 5.2-3.5 3.8-3.9 5.3-4.1 12.4-2 2.7.8 5.9 1.2 7.3.9 1.9-.5 2.5-.2 3 1.5.8 3 5 2.9 5.5-.2.4-2.6 4.5-3.7 5.4-1.3.5 1.4.8 1.4 3 0 2-1.4 3.5-1.4 10.3-.5 8.8 1.1 22.1 5.4 26.3 8.3 1.6 1.1 3.3 1.6 3.9 1.2 1.5-.9.3-11.3-1.6-15.1-2.6-4.8-2-6.3 2.3-6.3 2.2 0 5.9.6 8.3 1.3 5.1 1.5 10.1 1.5 10.6 0 .2-.6-.8-2.2-2.2-3.6-3-2.7-3.1-6.4-.2-5.9.9.2 1.7-.3 1.7-1.1 0-2.6-7-8.4-13.5-11.3-6.3-2.7-8.1-4.9-5.1-6 .8-.3 2.5 0 3.8.7 2.1 1.1 2.2 1.1.9-.4-.7-1-2.1-1.7-3-1.7-1 0-2.8-1.1-4.1-2.5-1.3-1.4-2.8-2.5-3.3-2.5-.6 0-1.7-.7-2.6-1.5-.9-.9-3.2-2.6-5.1-3.8-4.4-2.9-5.2-5.7-1.6-5.7 1.4 0 2.6-.4 2.6-1 0-2.2 4.1-3.1 9.2-2 6.1 1.3 7.3.6 2.7-1.6-7.1-3.2-8.9-4.6-8.9-6.3 0-1.1.8-2.2 1.7-2.5 1.5-.6 1.5-.8-.3-2-1.1-.8-3.1-1.6-4.4-1.8-2-.2-2.4-.8-2.2-2.7.1-1.4.8-3.2 1.6-4 .7-.9 2.1-3.7 3-6.2 1-2.5 2.8-5.8 4-7.4 2.2-2.7 2.6-2.8 5.1-1.7 2.5 1.2 2.7 1.1 1.5-.2-.7-.9-1.9-1.6-2.6-1.6-2.1 0-1.7-1.8 2.6-10.5 2.4-5 3.6-8.5 3.1-9.4-1-1.7.9-8.2 2.3-8 2.7.3 3.6-.2 3.6-2.1 0-1.5-.7-2-2.6-2-2.5 0-2.5-.2-1.9-4.2.4-2.3 1.6-5.5 2.6-7.2 1-1.7 1.9-3.7 1.9-4.4 0-.6 1.1-3.5 2.5-6.4 3.2-6.7 3.4-13.7.4-16.4-2.9-2.6-4.5-6.1-5.4-11.4-.4-2.5-1.8-6.4-3.2-8.8-1.5-2.7-2.2-5-1.8-6 1.1-2.4 1.3-11.3.4-13.9-.5-1.2-1.8-2.3-3.1-2.5-1.3-.2-2.4-1.1-2.6-2.2-.4-1.7 0-1.8 2.9-1.2 1.9.3 3.6 1.1 3.7 1.7.3.6.9.6 1.8-.2.8-.7 4.8-1.4 9-1.7 7.9-.5 9.3-1.2 7-3.5-1.1-1-2.8-1.3-6.1-1-3.9.5-4.5.3-4.5-1.3 0-1.1 1.2-2.7 2.5-3.7 2.2-1.6 3-1.7 6.3-.5 2 .7 4.4 2.1 5.3 3.2 1.2 1.5 1.9 1.7 3.6.8 3.8-2.1 3.6-4.1-.5-4.7-2-.3-6.5-1.1-10-1.7-5.3-1-6.5-1-7.2.2-.8 1.2-1 1.2-1.5-.2-.4-1.1-2.5-1.8-6.8-2.3-6.6-.7-8.9-1.8-8.1-4 .4-.9 2.3-1.1 7.2-.8 3.7.3 7.4.7 8.2 1 1.8.7 13.2 1.2 14.2.6.4-.2-.1-1.8-1.1-3.6-1.5-2.7-2.6-3.3-7.7-4.3-3.5-.7-6-.9-6.2-.3-.2.5-1 .9-1.7.9s-1.5.7-1.9 1.5c-.7 1.8-4.2 2-4.9.2-.2-.7-2.9-1.9-5.8-2.6-3-.7-7.4-1.9-9.9-2.6-2.5-.8-5.7-1.6-7.2-1.9-1.6-.4-2.8-1.2-2.8-1.9 0-1.8-9.3-8.7-11.7-8.7-3.3 0-4.4-2.2-3.5-6.6.8-3.6 1.1-3.9 3.7-3.6 1.6.2 5.2 1.4 8 2.7 6.5 3 14.7 6.5 15.1 6.5.2 0 .4-.4.4-1 0-.5-1.6-1.6-3.5-2.4-2.2-1-3.7-2.4-4.1-4-.4-1.6-2.4-3.6-5.2-5.3-7-4.2-9.1-5.3-10.2-5.3-.6 0-3.5-1.1-6.3-2.5-2.9-1.3-8.4-3.1-12.2-4-7.2-1.6-8-1.9-19.8-5.6-3.7-1.1-7.4-1.8-8.2-1.5-.8.3-1.7.1-2-.4-.7-1.2-2.5-1.3-2.5-.2 0 .7 2.9 2.1 7.3 3.6.9.3 1.7 1 1.7 1.7s-1.6.9-5 .4c-6.2-.9-6.9 1-.7 2.2 6.3 1.3 5.7 3.8-1 4-4.7.1-5.2-.1-5.8-2.4-.6-2.4-.7-2.4-2.4-.9-1 .9-2.2 1.6-2.7 1.6s-1.5.9-2.2 2.1c-1.1 1.7-2 2-4.4 1.5-1.7-.3-3.6-1.2-4.2-1.9-.6-.8-3.7-2-7-2.7-3.2-.8-6-2-6.3-2.7-.7-1.7-2.3-1.6-4.4.3-1.6 1.5-2 1.4-4-.5-1.5-1.3-3.6-2.1-5.9-2.1-2 0-4-.3-4.4-.7-1-1 13-4.2 18.7-4.3 2.7 0 4.7-.5 4.7-1.1 0-.6-.7-.8-1.6-.5-1 .4-2.5-.1-3.5-1-1.6-1.4-1.9-1.4-4.2.1-2 1.3-2.9 1.4-4.4.4-1.6-.9-4.1-.7-12.4 1-11 2.2-15.5 2.6-22.9 1.8-2.7-.3-4.8 0-5.2.6-.5.8-1.3.8-3 0-2.8-1.4-11.2-2.6-19-2.7-3.1-.1-6.3-.7-7-1.4-1.9-1.9-9.5-1.5-10.7.5-1 1.7-1 1.7-1.1 0 0-2.1-1.3-2.2-2.9-.3zM248.3 45c3.4 1.7 3.5 3 .2 3-1.4 0-2.5-.5-2.5-1 0-.6-.7-1-1.5-1-1.5 0-2-1.2-.9-2.3.7-.7.7-.7 4.7 1.3zm17.2 2.1c1.1.4 3 1.1 4.3 1.4 2.7.8 2.9 3.5.2 3.5-2.6 0-13-4.6-13-5.8 0-.5.3-1.1.6-1.5.5-.5 1.6-.2 7.9 2.4zm51 62c.4 1.1.4 2.3.1 2.6-.8.9-4.7-2.8-4-3.8 1-1.6 3.3-.9 3.9 1.2zM36 165c0 2.3-.6 3.3-2.4 4-1.3.5-2.7 1.4-3.1 1.9-.3.6-1.3 1.1-2.1 1.1-3.1 0 3.6-9.8 6.9-10 .4 0 .7 1.4.7 3zm3 12c0 .5-.4 1-.9 1-.6 0-1.3-.5-1.6-1-.3-.6.1-1 .9-1 .9 0 1.6.4 1.6 1zm2.9 20.4c1 1.1.8 1.6-.9 2.1-2.6.8-3.5.1-2.7-2 .8-1.9 2.1-1.9 3.6-.1zM174 308c0 1.3-11 1.3-13 0-1-.7.7-1 5.8-1 4.1 0 7.2.4 7.2 1zM298 44.4c0 1.5 2.4 2.8 3.4 1.9.5-.6-1.8-3.3-2.8-3.3-.3 0-.6.6-.6 1.4z"/><path d="M321.5 116c.3.5 1.3 1 2.1 1s1.2-.5.9-1c-.3-.6-1.3-1-2.1-1s-1.2.4-.9 1zM15.7 131.6c-1.1 1.1.3 2.4 1.8 1.8.8-.4 1.2-1 .9-1.5-.6-1.1-1.8-1.2-2.7-.3zM331 179c0 1 4.1 3 5.8 3 1-.1-3.9-4-4.9-4-.5 0-.9.5-.9 1zM27.8 207.7c.7.3 1.6.2 1.9-.1.4-.3-.2-.6-1.3-.5-1.1 0-1.4.3-.6.6zM41 229c0 .5.5 1 1.1 1 .5 0 .7-.5.4-1-.3-.6-.8-1-1.1-1-.2 0-.4.4-.4 1zM36 232c0 .5.4 1 .9 1 .6 0 1.3-.5 1.6-1 .3-.6-.1-1-.9-1-.9 0-1.6.4-1.6 1zM86.8 316.7c.7.3 1.6.2 1.9-.1.4-.3-.2-.6-1.3-.5-1.1 0-1.4.3-.6.6zM189.5 319c.3.5.8 1 1.1 1 .2 0 .4-.5.4-1 0-.6-.5-1-1.1-1-.5 0-.7.4-.4 1zM172 326c-10.9.7-7.4 2 11.8 4.2 9.2 1 17.1 2.3 17.6 2.8s2.9.7 5.3.3c3.4-.5 4.3-.3 4.3.9s1.5 1.7 5.9 2c6.9.5 13.1-.1 13.1-1.2 0-1.4-7.9-4-11.9-4-2.1 0-5.6-.6-7.8-1.4-2.1-.7-8.6-1.9-14.4-2.6-13.7-1.6-15.1-1.6-23.9-1z"/></svg>