<svg width="138" height="208" viewBox="0 0 138 208" fill="none" xmlns="http://www.w3.org/2000/svg">
<path d="M44.3232 188.736C44.1536 190.03 43.1784 190.39 42.1396 190.56C37.5604 191.365 33.8292 193.952 29.9284 196.241C27.448 197.683 24.7556 198.743 22.1268 199.951C21.7876 200.1 21.1304 200.206 21.0032 200.036C19.6464 198.319 18.1624 199.718 17.0812 200.142C14.8128 201.032 12.7988 202.495 10.6364 203.682C9.49157 204.318 8.32557 204.997 7.11717 205.506C5.80277 206.036 4.36117 206.226 3.32237 207.414C3.00437 207.795 2.19877 207.88 1.62637 207.88C1.22357 207.88 0.820769 207.477 0.417969 207.265C0.629969 206.947 0.799568 206.523 1.09637 206.354C2.24117 205.654 3.44957 205.06 4.61557 204.403C6.39637 203.407 8.17717 202.389 9.95797 201.372C10.2336 201.223 10.488 201.011 10.7636 200.948C15.046 199.93 18.65 197.45 22.4448 195.393C23.844 194.63 25.116 193.549 26.494 192.574C25.3704 191.068 24.2044 191.556 23.2928 192.001C19.7948 193.761 16.3604 195.648 12.926 197.492C12.396 197.789 11.9508 198.298 11.3784 198.467C10.8908 198.616 10.0004 198.594 9.80957 198.298C9.55517 197.895 9.55517 197.004 9.85197 196.644C11.5268 194.482 13.0532 192.107 16.1696 191.747C17.1024 191.641 18.1836 191.386 17.4416 190.008C17.1236 189.415 16.8692 188.864 17.5264 188.397C18.2684 187.888 19.0104 187.146 20.028 187.825C21.0244 188.503 22.1056 188.8 23.2292 188.27C24.268 187.804 25.3704 187.337 24.586 185.768C24.0984 184.793 24.7344 184.263 25.5824 183.86C27.2572 183.076 28.8896 182.207 30.5644 181.444C31.0944 181.21 32.0696 180.935 32.3028 181.168C33.9988 182.991 34.9952 181.359 36.2036 180.553C36.67 180.235 37.2424 180.066 37.7724 179.832C38.8536 181.613 36.6276 181.571 36.4792 182.864C36.882 182.949 37.3908 183.246 37.7088 183.118C40.062 182.122 42.3728 181.041 44.6836 179.917C44.8956 179.811 44.8956 179.26 45.0016 178.921C44.726 178.857 44.408 178.688 44.196 178.772C43.3904 179.133 42.606 179.578 41.5036 179.663C42.1608 178.984 42.712 178.136 43.4964 177.67C46.2312 176.038 49.0296 174.49 51.8492 172.985C52.4004 172.688 53.3544 172.455 53.7996 172.709C54.9656 173.43 55.9832 173.154 57.0432 172.709C59.1208 171.84 61.1772 170.95 63.2336 170.017C63.5516 169.868 63.7 169.423 64.0604 168.936C62.1524 167.642 60.6684 169.105 58.6968 169.593C59.0148 168.787 59.0784 168.109 59.4388 167.897C60.732 167.091 62.0676 166.328 63.4668 165.734C64.5692 165.247 65.8836 165.204 66.6892 163.678C66.0108 163.508 65.4808 163.275 64.972 163.296C61.1136 163.53 57.4248 164.123 54.7536 167.452C53.3756 169.148 51.1284 169.232 49.0932 169.36C47.9908 169.423 47.6092 168.639 47.8848 167.706C48.1392 166.837 48.4572 165.734 49.1144 165.31C51.1284 164.038 53.0152 162.173 55.8348 162.957C56.386 163.106 57.0644 163.021 57.6156 162.83C60.4352 161.834 63.2336 160.816 66.0108 159.692C66.9648 159.311 68.4276 158.908 66.9012 157.382C66.8164 157.297 67.3464 156.343 67.7704 156.067C71.0988 153.799 74.4484 151.594 77.798 149.368C84.158 145.128 91.0268 141.842 97.8532 138.429C102.051 136.33 105.57 133.298 109.216 130.458C110.022 129.822 110.679 128.995 111.294 128.189C112.82 126.154 112.545 124.564 110.255 123.398C108.814 122.656 107.181 122.168 105.591 121.914C99.9944 121.024 94.3552 120.43 88.7796 119.476C84.2852 118.713 80.5964 116.232 78.6036 112.204C77.48 109.936 77.0136 106.883 77.4588 104.424C78.6884 97.64 81.508 91.492 86.4052 86.4252C91.3024 81.3584 97.09 77.6696 103.747 75.5496C107.838 74.2564 112.078 74.638 116.255 75.6556C118.905 76.3128 121.428 76.3128 124.056 75.1256C126.6 73.9808 129.166 72.9632 131.349 71.1824C131.498 71.0552 131.688 70.9068 131.879 70.8644C132.727 70.61 133.469 72.3484 134.423 70.9068C134.911 70.1648 135.674 69.5712 136.31 68.9352C136.352 68.8928 136.501 68.9564 136.84 68.9776C136.882 69.6136 136.967 70.2708 136.967 70.928C136.967 72.2212 136.352 73.5144 137.434 74.744C137.773 75.1468 137.434 76.122 137.434 76.8216C137.455 79.5776 137.624 82.3548 137.497 85.1108C137.349 88.1 136.84 91.068 135.144 93.6332C133.066 96.7496 130.48 99.3784 127.364 101.498C126.494 102.071 125.795 102.134 124.798 101.859C122.466 101.202 120.474 100.12 118.799 98.276C116.212 95.4352 113.16 93.1668 109.768 91.3436C107.245 89.9868 104.934 90.1564 102.56 91.8736C99.6128 93.9936 96.7296 96.1136 94.8852 99.336C92.9984 102.643 92.5956 106.162 94.0796 109.66C94.8428 111.441 96.6872 112.332 98.5316 112.671C102.369 113.392 106.248 113.964 110.128 114.43C113.478 114.812 116.954 114.6 120.24 115.278C124.841 116.211 129.081 118.077 131.37 122.677C132.282 124.522 133.406 126.302 134.063 128.232C134.868 130.606 134.932 133.023 133.618 135.376C131.604 138.938 129.06 141.906 125.774 144.407C120.495 148.435 114.644 151.467 108.983 154.816C106.906 156.046 105.188 157.551 103.768 159.523C102.878 160.752 101.733 161.918 100.44 162.682C94.0372 166.434 87.55 170.017 81.1052 173.663C79.0276 174.829 76.738 174.723 74.4696 174.787C74.1516 174.787 73.6428 174.426 73.5792 174.151C73.5156 173.875 73.8548 173.366 74.1516 173.218C75.89 172.328 77.6284 171.48 79.4092 170.674C80.342 170.25 81.3172 169.911 81.4444 168.215C80.2996 168.49 79.3244 168.618 78.434 168.978C74.7028 170.441 71.014 172.073 67.2404 173.451C64.7388 174.363 62.11 174.872 59.8416 176.419C59.4388 176.695 58.6332 176.631 58.082 176.483C56.4496 176.059 55.0716 176.525 53.6512 177.288C51.1072 178.645 48.5208 179.938 45.9132 181.168C41.8216 183.097 37.6664 184.878 33.8716 187.401C32.854 188.079 31.9 188.864 30.946 189.648C30.7764 189.775 30.7552 190.263 30.8612 190.475C30.9672 190.687 31.3912 190.962 31.582 190.899C32.96 190.496 34.3592 190.136 35.6524 189.542C37.518 188.673 39.2564 187.549 41.122 186.68C42.924 185.811 44.62 184.687 46.9096 185.323C47.8 185.556 48.966 184.581 50.0472 184.327C50.5136 184.221 51.086 184.539 51.6372 184.666C51.4464 185.196 51.404 186.002 51.0436 186.192C49.6232 186.956 48.0968 187.549 46.5916 188.143C45.8284 188.44 45.0228 188.588 44.2384 188.821C44.2172 188.63 44.2384 188.397 44.1748 188.228C44.09 187.994 43.9204 187.782 43.7508 187.613C43.7296 187.592 43.454 187.804 43.2844 187.91C43.454 188.122 43.5812 188.376 43.772 188.546C43.9204 188.673 44.1324 188.673 44.3232 188.736Z" fill="#CE1B1B"/>
<path d="M44.3232 188.736C44.1536 190.03 43.1784 190.39 42.1396 190.56C37.5604 191.365 33.8292 193.952 29.9284 196.241C27.448 197.683 24.7556 198.743 22.1268 199.951C21.7876 200.1 21.1304 200.206 21.0032 200.036C19.6464 198.319 18.1624 199.718 17.0812 200.142C14.8128 201.032 12.7988 202.495 10.6364 203.682C9.49157 204.318 8.32557 204.997 7.11717 205.506C5.80277 206.036 4.36117 206.226 3.32237 207.414C3.00437 207.795 2.19877 207.88 1.62637 207.88C1.22357 207.88 0.820769 207.477 0.417969 207.265C0.629969 206.947 0.799568 206.523 1.09637 206.354C2.24117 205.654 3.44957 205.06 4.61557 204.403C6.39637 203.407 8.17717 202.389 9.95797 201.372C10.2336 201.223 10.488 201.011 10.7636 200.948C15.046 199.93 18.65 197.45 22.4448 195.393C23.844 194.63 25.116 193.549 26.494 192.574C25.3704 191.068 24.2044 191.556 23.2928 192.001C19.7948 193.761 16.3604 195.648 12.926 197.492C12.396 197.789 11.9508 198.298 11.3784 198.467C10.8908 198.616 10.0004 198.594 9.80957 198.298C9.55517 197.895 9.55517 197.004 9.85197 196.644C11.5268 194.482 13.0532 192.107 16.1696 191.747C17.1024 191.641 18.1836 191.386 17.4416 190.008C17.1236 189.415 16.8692 188.864 17.5264 188.397C18.2684 187.888 19.0104 187.146 20.028 187.825C21.0244 188.503 22.1056 188.8 23.2292 188.27C24.268 187.804 25.3704 187.337 24.586 185.768C24.0984 184.793 24.7344 184.263 25.5824 183.86C27.2572 183.076 28.8896 182.207 30.5644 181.444C31.0944 181.21 32.0696 180.935 32.3028 181.168C33.9988 182.991 34.9952 181.359 36.2036 180.553C36.67 180.235 37.2424 180.066 37.7724 179.832C38.8536 181.613 36.6276 181.571 36.4792 182.864C36.882 182.949 37.3908 183.246 37.7088 183.118C40.062 182.122 42.3728 181.041 44.6836 179.917C44.8956 179.811 44.8956 179.26 45.0016 178.921C44.726 178.857 44.408 178.688 44.196 178.772C43.3904 179.133 42.606 179.578 41.5036 179.663C42.1608 178.984 42.712 178.136 43.4964 177.67C46.2312 176.038 49.0296 174.49 51.8492 172.985C52.4004 172.688 53.3544 172.455 53.7996 172.709C54.9656 173.43 55.9832 173.154 57.0432 172.709C59.1208 171.84 61.1772 170.95 63.2336 170.017C63.5516 169.868 63.7 169.423 64.0604 168.936C62.1524 167.642 60.6684 169.105 58.6968 169.593C59.0148 168.787 59.0784 168.109 59.4388 167.897C60.732 167.091 62.0676 166.328 63.4668 165.734C64.5692 165.247 65.8836 165.204 66.6892 163.678C66.0108 163.508 65.4808 163.275 64.972 163.296C61.1136 163.53 57.4248 164.123 54.7536 167.452C53.3756 169.148 51.1284 169.232 49.0932 169.36C47.9908 169.423 47.6092 168.639 47.8848 167.706C48.1392 166.837 48.4572 165.734 49.1144 165.31C51.1284 164.038 53.0152 162.173 55.8348 162.957C56.386 163.106 57.0644 163.021 57.6156 162.83C60.4352 161.834 63.2336 160.816 66.0108 159.692C66.9648 159.311 68.4276 158.908 66.9012 157.382C66.8164 157.297 67.3464 156.343 67.7704 156.067C71.0988 153.799 74.4484 151.594 77.798 149.368C84.158 145.128 91.0268 141.842 97.8532 138.429C102.051 136.33 105.57 133.298 109.216 130.458C110.022 129.822 110.679 128.995 111.294 128.189C112.82 126.154 112.545 124.564 110.255 123.398C108.814 122.656 107.181 122.168 105.591 121.914C99.9944 121.024 94.3552 120.43 88.7796 119.476C84.2852 118.713 80.5964 116.232 78.6036 112.204C77.48 109.936 77.0136 106.883 77.4588 104.424C78.6884 97.64 81.508 91.492 86.4052 86.4252C91.3024 81.3584 97.09 77.6696 103.747 75.5496C107.838 74.2564 112.078 74.638 116.255 75.6556C118.905 76.3128 121.428 76.3128 124.056 75.1256C126.6 73.9808 129.166 72.9632 131.349 71.1824C131.498 71.0552 131.688 70.9068 131.879 70.8644C132.727 70.61 133.469 72.3484 134.423 70.9068C134.911 70.1648 135.674 69.5712 136.31 68.9352C136.352 68.8928 136.501 68.9564 136.84 68.9776C136.882 69.6136 136.967 70.2708 136.967 70.928C136.967 72.2212 136.352 73.5144 137.434 74.744C137.773 75.1468 137.434 76.122 137.434 76.8216C137.455 79.5776 137.624 82.3548 137.497 85.1108C137.349 88.1 136.84 91.068 135.144 93.6332C133.066 96.7496 130.48 99.3784 127.364 101.498C126.494 102.071 125.795 102.134 124.798 101.859C122.466 101.202 120.474 100.12 118.799 98.276C116.212 95.4352 113.16 93.1668 109.768 91.3436C107.245 89.9868 104.934 90.1564 102.56 91.8736C99.6128 93.9936 96.7296 96.1136 94.8852 99.336C92.9984 102.643 92.5956 106.162 94.0796 109.66C94.8428 111.441 96.6872 112.332 98.5316 112.671C102.369 113.392 106.248 113.964 110.128 114.43C113.478 114.812 116.954 114.6 120.24 115.278C124.841 116.211 129.081 118.077 131.37 122.677C132.282 124.522 133.406 126.302 134.063 128.232C134.868 130.606 134.932 133.023 133.618 135.376C131.604 138.938 129.06 141.906 125.774 144.407C120.495 148.435 114.644 151.467 108.983 154.816C106.906 156.046 105.188 157.551 103.768 159.523C102.878 160.752 101.733 161.918 100.44 162.682C94.0372 166.434 87.55 170.017 81.1052 173.663C79.0276 174.829 76.738 174.723 74.4696 174.787C74.1516 174.787 73.6428 174.426 73.5792 174.151C73.5156 173.875 73.8548 173.366 74.1516 173.218C75.89 172.328 77.6284 171.48 79.4092 170.674C80.342 170.25 81.3172 169.911 81.4444 168.215C80.2996 168.49 79.3244 168.618 78.434 168.978C74.7028 170.441 71.014 172.073 67.2404 173.451C64.7388 174.363 62.11 174.872 59.8416 176.419C59.4388 176.695 58.6332 176.631 58.082 176.483C56.4496 176.059 55.0716 176.525 53.6512 177.288C51.1072 178.645 48.5208 179.938 45.9132 181.168C41.8216 183.097 37.6664 184.878 33.8716 187.401C32.854 188.079 31.9 188.864 30.946 189.648C30.7764 189.775 30.7552 190.263 30.8612 190.475C30.9672 190.687 31.3912 190.962 31.582 190.899C32.96 190.496 34.3592 190.136 35.6524 189.542C37.518 188.673 39.2564 187.549 41.122 186.68C42.924 185.811 44.62 184.687 46.9096 185.323C47.8 185.556 48.966 184.581 50.0472 184.327C50.5136 184.221 51.086 184.539 51.6372 184.666C51.4464 185.196 51.404 186.002 51.0436 186.192C49.6232 186.956 48.0968 187.549 46.5916 188.143C45.8284 188.44 45.0228 188.588 44.2384 188.821C44.2172 188.63 44.2384 188.397 44.1748 188.228C44.09 187.994 43.9204 187.782 43.7508 187.613C43.7296 187.592 43.454 187.804 43.2844 187.91C43.454 188.122 43.5812 188.376 43.772 188.546C43.9204 188.673 44.1324 188.673 44.3232 188.736Z" fill="url(#paint0_linear)"/>
<path d="M90.0303 43.7284C94.2279 37.9832 97.4291 31.92 101.987 26.8956C102.22 27.044 102.475 27.2136 102.708 27.362C101.16 30.4784 99.5915 33.5948 98.0439 36.7112C98.2347 36.8172 98.4467 36.9444 98.6375 37.0716C99.3371 36.0752 100.122 35.1 100.715 34.04C102.093 31.6444 103.28 29.1216 104.743 26.7472C108.686 20.366 112.439 13.8576 117.951 8.60002C118.332 8.23962 118.65 7.83682 119.074 7.54002C120.389 6.54362 121.47 6.56482 122.827 7.66722C123.039 7.85802 123.208 8.40922 123.102 8.64242C122.721 9.46922 122.233 10.2748 121.724 11.038C120.24 13.2428 118.778 15.4476 117.23 17.61C115.598 19.8784 114.813 22.3588 114.834 25.136C114.856 26.832 114.114 28.0192 112.312 28.6552C112.248 27.9556 112.184 27.4044 112.1 26.5776C109.789 29.9272 107.648 33.0436 105.485 36.1388C105.422 36.2236 105.125 36.16 104.616 36.16C106.672 31.4112 110.425 27.5952 111.358 22.4436C108.75 23.6944 107.648 26.196 106.121 28.2736C104.616 30.3088 103.577 32.7044 102.411 34.994C101.182 37.3684 99.9519 39.764 98.9131 42.2444C97.9379 44.534 96.0935 46.5904 96.6023 49.622C99.2947 48.5832 99.6763 45.2972 102.326 44.1312C102.326 44.6824 102.411 45.0004 102.305 45.2336C99.4643 51.5088 96.9627 57.9324 92.7863 63.5504C90.4755 66.6668 88.7795 70.2496 86.7655 73.5992C85.8539 75.0832 84.7939 76.4612 83.8187 77.9028C83.4795 78.4116 83.1191 78.8992 82.8647 79.4504C81.9743 81.528 81.3383 83.7328 80.1935 85.662C79.0275 87.6336 79.1971 89.8172 78.6035 91.8524C77.2255 96.686 75.6567 101.456 74.2363 106.29C72.2223 113.095 70.8867 120.07 69.7631 127.087C69.2119 130.564 69.0211 134.04 69.0211 137.538C69.0423 141.164 65.1415 143.771 61.8555 142.414C61.4951 142.266 61.1135 141.969 60.9439 141.651C59.2479 138.535 56.7251 136.033 54.2023 133.701C51.9763 131.645 51.7431 129.44 52.4215 127.023C52.9515 125.115 52.7819 123.419 52.3155 121.617C51.6159 118.84 50.8315 116.042 50.5135 113.201C50.3015 111.314 49.1143 110.084 48.4571 108.516C47.3335 105.781 46.2947 103.004 45.2983 100.226C43.6235 95.5836 42.0335 90.9196 40.3799 86.2768C39.5531 83.966 38.4083 81.7612 37.7935 79.3868C37.0515 76.5036 35.3555 74.3836 33.1507 72.6452C31.2427 71.1612 30.3523 69.1896 30.5643 67.006C30.8187 64.4196 30.4795 61.706 32.0907 59.3104C33.1083 57.8052 33.6171 55.9396 34.3379 54.2436C34.8043 53.1412 35.4827 52.378 36.6699 53.1836C37.6663 53.862 38.4507 53.5228 39.1927 52.9716C41.2279 51.4452 43.3479 52.5688 45.4467 52.7172C47.6939 55.0068 50.5135 56.7028 51.0647 60.4128C51.8915 66.0944 53.0363 71.7548 54.3083 77.3516C55.4319 82.27 56.9159 87.0824 58.2303 91.9584C58.4423 92.7428 58.4635 93.5908 58.6755 94.3964C58.9935 95.6684 59.3327 96.9404 59.7143 98.1912C59.8627 98.6788 60.1595 99.124 60.3291 99.6116C60.6471 100.502 60.2655 102.007 61.6223 101.986C62.1099 101.965 62.6823 100.438 63.0003 99.5268C65.1839 93.1032 67.2615 86.6372 69.4663 80.2136C71.3107 74.85 73.3459 69.5712 75.1055 64.2076C76.1231 61.0912 76.3987 57.7416 77.9675 54.7948C79.3879 52.1872 80.8083 49.5584 82.3559 47.0144C82.8223 46.23 83.5643 45.1488 84.8363 46.2724C84.9635 46.3784 85.7479 45.9756 86.0235 45.6364C86.6807 44.852 87.1895 43.9404 87.8043 43.1136C88.7583 41.7568 88.9279 41.7992 90.0303 43.7284ZM118.46 12.2464C117.4 12.5008 116.721 12.4372 116.488 12.7552C115.068 14.4724 113.711 16.2532 112.375 18.034C112.269 18.1824 112.418 18.7548 112.566 18.8184C112.884 18.9456 113.435 19.0092 113.626 18.8184C115.513 17.0588 117.23 15.1932 118.46 12.2464Z" fill="#CE1B1B"/>
<path d="M90.0303 43.7284C94.2279 37.9832 97.4291 31.92 101.987 26.8956C102.22 27.044 102.475 27.2136 102.708 27.362C101.16 30.4784 99.5915 33.5948 98.0439 36.7112C98.2347 36.8172 98.4467 36.9444 98.6375 37.0716C99.3371 36.0752 100.122 35.1 100.715 34.04C102.093 31.6444 103.28 29.1216 104.743 26.7472C108.686 20.366 112.439 13.8576 117.951 8.60002C118.332 8.23962 118.65 7.83682 119.074 7.54002C120.389 6.54362 121.47 6.56482 122.827 7.66722C123.039 7.85802 123.208 8.40922 123.102 8.64242C122.721 9.46922 122.233 10.2748 121.724 11.038C120.24 13.2428 118.778 15.4476 117.23 17.61C115.598 19.8784 114.813 22.3588 114.834 25.136C114.856 26.832 114.114 28.0192 112.312 28.6552C112.248 27.9556 112.184 27.4044 112.1 26.5776C109.789 29.9272 107.648 33.0436 105.485 36.1388C105.422 36.2236 105.125 36.16 104.616 36.16C106.672 31.4112 110.425 27.5952 111.358 22.4436C108.75 23.6944 107.648 26.196 106.121 28.2736C104.616 30.3088 103.577 32.7044 102.411 34.994C101.182 37.3684 99.9519 39.764 98.9131 42.2444C97.9379 44.534 96.0935 46.5904 96.6023 49.622C99.2947 48.5832 99.6763 45.2972 102.326 44.1312C102.326 44.6824 102.411 45.0004 102.305 45.2336C99.4643 51.5088 96.9627 57.9324 92.7863 63.5504C90.4755 66.6668 88.7795 70.2496 86.7655 73.5992C85.8539 75.0832 84.7939 76.4612 83.8187 77.9028C83.4795 78.4116 83.1191 78.8992 82.8647 79.4504C81.9743 81.528 81.3383 83.7328 80.1935 85.662C79.0275 87.6336 79.1971 89.8172 78.6035 91.8524C77.2255 96.686 75.6567 101.456 74.2363 106.29C72.2223 113.095 70.8867 120.07 69.7631 127.087C69.2119 130.564 69.0211 134.04 69.0211 137.538C69.0423 141.164 65.1415 143.771 61.8555 142.414C61.4951 142.266 61.1135 141.969 60.9439 141.651C59.2479 138.535 56.7251 136.033 54.2023 133.701C51.9763 131.645 51.7431 129.44 52.4215 127.023C52.9515 125.115 52.7819 123.419 52.3155 121.617C51.6159 118.84 50.8315 116.042 50.5135 113.201C50.3015 111.314 49.1143 110.084 48.4571 108.516C47.3335 105.781 46.2947 103.004 45.2983 100.226C43.6235 95.5836 42.0335 90.9196 40.3799 86.2768C39.5531 83.966 38.4083 81.7612 37.7935 79.3868C37.0515 76.5036 35.3555 74.3836 33.1507 72.6452C31.2427 71.1612 30.3523 69.1896 30.5643 67.006C30.8187 64.4196 30.4795 61.706 32.0907 59.3104C33.1083 57.8052 33.6171 55.9396 34.3379 54.2436C34.8043 53.1412 35.4827 52.378 36.6699 53.1836C37.6663 53.862 38.4507 53.5228 39.1927 52.9716C41.2279 51.4452 43.3479 52.5688 45.4467 52.7172C47.6939 55.0068 50.5135 56.7028 51.0647 60.4128C51.8915 66.0944 53.0363 71.7548 54.3083 77.3516C55.4319 82.27 56.9159 87.0824 58.2303 91.9584C58.4423 92.7428 58.4635 93.5908 58.6755 94.3964C58.9935 95.6684 59.3327 96.9404 59.7143 98.1912C59.8627 98.6788 60.1595 99.124 60.3291 99.6116C60.6471 100.502 60.2655 102.007 61.6223 101.986C62.1099 101.965 62.6823 100.438 63.0003 99.5268C65.1839 93.1032 67.2615 86.6372 69.4663 80.2136C71.3107 74.85 73.3459 69.5712 75.1055 64.2076C76.1231 61.0912 76.3987 57.7416 77.9675 54.7948C79.3879 52.1872 80.8083 49.5584 82.3559 47.0144C82.8223 46.23 83.5643 45.1488 84.8363 46.2724C84.9635 46.3784 85.7479 45.9756 86.0235 45.6364C86.6807 44.852 87.1895 43.9404 87.8043 43.1136C88.7583 41.7568 88.9279 41.7992 90.0303 43.7284ZM118.46 12.2464C117.4 12.5008 116.721 12.4372 116.488 12.7552C115.068 14.4724 113.711 16.2532 112.375 18.034C112.269 18.1824 112.418 18.7548 112.566 18.8184C112.884 18.9456 113.435 19.0092 113.626 18.8184C115.513 17.0588 117.23 15.1932 118.46 12.2464Z" fill="url(#paint1_linear)"/>
<path d="M112.163 3.2152C111.018 4.7628 110.934 7.51881 108.39 8.6848C107.923 8.8968 107.181 8.81201 106.694 8.5788C106.46 8.47281 106.418 7.6672 106.524 7.222C106.906 5.632 107.393 4.0632 107.838 2.4944C107.923 2.1976 108.008 1.8796 108.135 1.6252C108.814 0.332004 109.746 -0.134396 110.849 0.183604C111.866 0.522804 112.269 1.2436 112.163 3.2152Z" fill="#CE1B1B"/>
<path d="M112.163 3.2152C111.018 4.7628 110.934 7.51881 108.39 8.6848C107.923 8.8968 107.181 8.81201 106.694 8.5788C106.46 8.47281 106.418 7.6672 106.524 7.222C106.906 5.632 107.393 4.0632 107.838 2.4944C107.923 2.1976 108.008 1.8796 108.135 1.6252C108.814 0.332004 109.746 -0.134396 110.849 0.183604C111.866 0.522804 112.269 1.2436 112.163 3.2152Z" fill="url(#paint2_linear)"/>
<defs>
<linearGradient id="paint0_linear" x1="69.0012" y1="68.9209" x2="69.0012" y2="207.88" gradientUnits="userSpaceOnUse">
<stop stop-color="#F2BF0D"/>
<stop offset="0.661458" stop-color="white" stop-opacity="0"/>
</linearGradient>
<linearGradient id="paint1_linear" x1="76.8343" y1="6.81558" x2="76.8343" y2="142.779" gradientUnits="userSpaceOnUse">
<stop stop-color="#F2BF0D"/>
<stop offset="0.661458" stop-color="white" stop-opacity="0"/>
</linearGradient>
<linearGradient id="paint2_linear" x1="109.324" y1="0.087265" x2="109.324" y2="8.80625" gradientUnits="userSpaceOnUse">
<stop stop-color="#F2BF0D"/>
<stop offset="0.661458" stop-color="white" stop-opacity="0"/>
</linearGradient>
</defs>
</svg>
